<?xml version="1.0" encoding="utf-8" standalone="no"?>
<!DOCTYPE svg PUBLIC "-//W3C//DTD SVG 1.1//EN"
  "http://www.w3.org/Graphics/SVG/1.1/DTD/svg11.dtd">
<svg xmlns:xlink="http://www.w3.org/1999/xlink" width="848.4pt" height="634.471178pt" viewBox="0 0 848.4 634.471178" xmlns="http://www.w3.org/2000/svg" version="1.1">
 <metadata>
  <rdf:RDF xmlns:dc="http://purl.org/dc/elements/1.1/" xmlns:cc="http://creativecommons.org/ns#" xmlns:rdf="http://www.w3.org/1999/02/22-rdf-syntax-ns#">
   <cc:Work>
    <dc:type rdf:resource="http://purl.org/dc/dcmitype/StillImage"/>
    <dc:date>2026-05-11T10:06:27.437808</dc:date>
    <dc:format>image/svg+xml</dc:format>
    <dc:creator>
     <cc:Agent>
      <dc:title>Matplotlib v3.8.0, https://matplotlib.org/</dc:title>
     </cc:Agent>
    </dc:creator>
   </cc:Work>
  </rdf:RDF>
 </metadata>
 <defs>
  <style type="text/css">*{stroke-linejoin: round; stroke-linecap: butt}</style>
 </defs>
 <g id="figure_1">
  <g id="patch_1">
   <path d="M 0 634.471178 
L 848.4 634.471178 
L 848.4 0 
L 0 0 
z
" style="fill: #ffffff"/>
  </g>
  <g id="axes_1">
   <g id="patch_2">
    <path d="M 313 87.060149 
L 535.4 87.060149 
Q 545.825 87.060149 545.825 77.111136 
L 545.825 33.998745 
Q 545.825 24.049731 535.4 24.049731 
L 313 24.049731 
Q 302.575 24.049731 302.575 33.998745 
L 302.575 77.111136 
Q 302.575 87.060149 313 87.060149 
z
" clip-path="url(#p14f445ba3a)" style="fill: #4d4d4d; stroke: #ffffff; stroke-width: 1.5; stroke-linejoin: miter"/>
   </g>
   <g id="patch_3">
    <path d="M 313 145.09606 
L 535.4 145.09606 
Q 545.825 145.09606 545.825 135.147047 
L 545.825 95.350994 
Q 545.825 85.40198 535.4 85.40198 
L 313 85.40198 
Q 302.575 85.40198 302.575 95.350994 
L 302.575 135.147047 
Q 302.575 145.09606 313 145.09606 
z
" clip-path="url(#p14f445ba3a)" style="fill: #b64342; stroke: #ffffff; stroke-width: 1.5; stroke-linejoin: miter"/>
   </g>
   <g id="patch_4">
    <path d="M 594.475 143.437891 
L 698.725 143.437891 
Q 709.15 143.437891 709.15 133.488878 
L 709.15 97.009163 
Q 709.15 87.060149 698.725 87.060149 
L 594.475 87.060149 
Q 584.05 87.060149 584.05 97.009163 
L 584.05 133.488878 
Q 584.05 143.437891 594.475 143.437891 
z
" clip-path="url(#p14f445ba3a)" style="fill: #f6cfcb; stroke: #ffffff; stroke-width: 1.5; stroke-linejoin: miter"/>
   </g>
   <g id="patch_5">
    <path d="M 62.8 453.515474 
L 785.6 453.515474 
Q 806.45 453.515474 806.45 433.617447 
L 806.45 155.045074 
Q 806.45 135.147047 785.6 135.147047 
L 62.8 135.147047 
Q 41.95 135.147047 41.95 155.045074 
L 41.95 433.617447 
Q 41.95 453.515474 62.8 453.515474 
z
" clip-path="url(#p14f445ba3a)" style="fill: #f5f7fa; stroke-dasharray: 4.44,1.92; stroke-dashoffset: 0; stroke: #767676; stroke-width: 1.2; stroke-linejoin: miter"/>
   </g>
   <g id="patch_6">
    <path d="M 326.9 231.320842 
L 521.5 231.320842 
Q 531.925 231.320842 531.925 221.371829 
L 531.925 181.575776 
Q 531.925 171.626762 521.5 171.626762 
L 326.9 171.626762 
Q 316.475 171.626762 316.475 181.575776 
L 316.475 221.371829 
Q 316.475 231.320842 326.9 231.320842 
z
" clip-path="url(#p14f445ba3a)" style="fill: #0f4d92; stroke: #ffffff; stroke-width: 1.5; stroke-linejoin: miter"/>
   </g>
   <g id="patch_7">
    <path d="M 424.2 231.320842 
L 493.7 267.800558 
L 424.2 304.280274 
L 354.7 267.800558 
z
" clip-path="url(#p14f445ba3a)" style="fill: #ffd700; stroke: #ffffff; stroke-width: 1.2; stroke-linejoin: miter"/>
   </g>
   <g id="patch_8">
    <path d="M 69.75 362.316185 
L 194.85 362.316185 
Q 205.275 362.316185 205.275 352.367171 
L 205.275 315.887456 
Q 205.275 305.938442 194.85 305.938442 
L 69.75 305.938442 
Q 59.325 305.938442 59.325 315.887456 
L 59.325 352.367171 
Q 59.325 362.316185 69.75 362.316185 
z
" clip-path="url(#p14f445ba3a)" style="fill: #b64342; stroke: #ffffff; stroke-width: 1.5; stroke-linejoin: miter"/>
   </g>
   <g id="patch_9">
    <path d="M 80.175 415.377589 
L 184.425 415.377589 
Q 194.85 415.377589 194.85 405.428576 
L 194.85 368.94886 
Q 194.85 358.999847 184.425 358.999847 
L 80.175 358.999847 
Q 69.75 358.999847 69.75 368.94886 
L 69.75 405.428576 
Q 69.75 415.377589 80.175 415.377589 
z
" clip-path="url(#p14f445ba3a)" style="fill: #f6cfcb; stroke: #ffffff; stroke-width: 1.5; stroke-linejoin: miter"/>
   </g>
   <g id="patch_10">
    <path d="M 48.9 320.861962 
L 215.7 320.861962 
Q 226.125 320.861962 226.125 310.912949 
L 226.125 277.749571 
Q 226.125 267.800558 215.7 267.800558 
L 48.9 267.800558 
Q 38.475 267.800558 38.475 277.749571 
L 38.475 310.912949 
Q 38.475 320.861962 48.9 320.861962 
z
" clip-path="url(#p14f445ba3a)" style="fill: #42949e; stroke: #ffffff; stroke-width: 1.5; stroke-linejoin: miter"/>
   </g>
   <g id="patch_11">
    <path d="M 215.7 320.861962 
L 382.5 320.861962 
Q 392.925 320.861962 392.925 310.912949 
L 392.925 277.749571 
Q 392.925 267.800558 382.5 267.800558 
L 215.7 267.800558 
Q 205.275 267.800558 205.275 277.749571 
L 205.275 310.912949 
Q 205.275 320.861962 215.7 320.861962 
z
" clip-path="url(#p14f445ba3a)" style="fill: #42949e; stroke: #ffffff; stroke-width: 1.5; stroke-linejoin: miter"/>
   </g>
   <g id="patch_12">
    <path d="M 215.7 373.923367 
L 382.5 373.923367 
Q 392.925 373.923367 392.925 363.974354 
L 392.925 330.810976 
Q 392.925 320.861962 382.5 320.861962 
L 215.7 320.861962 
Q 205.275 320.861962 205.275 330.810976 
L 205.275 363.974354 
Q 205.275 373.923367 215.7 373.923367 
z
" clip-path="url(#p14f445ba3a)" style="fill: #42949e; stroke: #ffffff; stroke-width: 1.5; stroke-linejoin: miter"/>
   </g>
   <g id="patch_13">
    <path d="M 215.7 426.984771 
L 382.5 426.984771 
Q 392.925 426.984771 392.925 417.035758 
L 392.925 383.87238 
Q 392.925 373.923367 382.5 373.923367 
L 215.7 373.923367 
Q 205.275 373.923367 205.275 383.87238 
L 205.275 417.035758 
Q 205.275 426.984771 215.7 426.984771 
z
" clip-path="url(#p14f445ba3a)" style="fill: #42949e; stroke: #ffffff; stroke-width: 1.5; stroke-linejoin: miter"/>
   </g>
   <g id="patch_14">
    <path d="M 535.4 295.989429 
L 702.2 295.989429 
Q 712.625 295.989429 712.625 286.040416 
L 712.625 249.5607 
Q 712.625 239.611687 702.2 239.611687 
L 535.4 239.611687 
Q 524.975 239.611687 524.975 249.5607 
L 524.975 286.040416 
Q 524.975 295.989429 535.4 295.989429 
z
" clip-path="url(#p14f445ba3a)" style="fill: #8bcf8b; stroke: #ffffff; stroke-width: 1.5; stroke-linejoin: miter"/>
   </g>
   <g id="patch_15">
    <path d="M 660.5 349.050834 
L 771.7 349.050834 
Q 782.125 349.050834 782.125 339.10182 
L 782.125 302.622105 
Q 782.125 292.673091 771.7 292.673091 
L 660.5 292.673091 
Q 650.075 292.673091 650.075 302.622105 
L 650.075 339.10182 
Q 650.075 349.050834 660.5 349.050834 
z
" clip-path="url(#p14f445ba3a)" style="fill: #aadca9; stroke: #ffffff; stroke-width: 1.5; stroke-linejoin: miter"/>
   </g>
   <g id="patch_16">
    <path d="M 663.975 402.112238 
L 768.225 402.112238 
Q 778.65 402.112238 778.65 392.163225 
L 778.65 355.683509 
Q 778.65 345.734496 768.225 345.734496 
L 663.975 345.734496 
Q 653.55 345.734496 653.55 355.683509 
L 653.55 392.163225 
Q 653.55 402.112238 663.975 402.112238 
z
" clip-path="url(#p14f445ba3a)" style="fill: #ddf3de; stroke: #ffffff; stroke-width: 1.5; stroke-linejoin: miter"/>
   </g>
   <g id="patch_17">
    <path d="M 535.4 373.923367 
L 702.2 373.923367 
Q 712.625 373.923367 712.625 363.974354 
L 712.625 330.810976 
Q 712.625 320.861962 702.2 320.861962 
L 535.4 320.861962 
Q 524.975 320.861962 524.975 330.810976 
L 524.975 363.974354 
Q 524.975 373.923367 535.4 373.923367 
z
" clip-path="url(#p14f445ba3a)" style="fill: #3775ba; stroke: #ffffff; stroke-width: 1.5; stroke-linejoin: miter"/>
   </g>
   <g id="text_1">
    <text style="fill: #ffffff; font: 700 10px 'Arial', 'DejaVu Sans', 'Liberation Sans', sans-serif; text-anchor: middle" x="424.2" y="58.14244" transform="rotate(-0 424.2 58.14244)">Start: solve()</text>
   </g>
   <g id="text_2">
    <text style="fill: #ffffff; font: 700 9px 'Arial', 'DejaVu Sans', 'Liberation Sans', sans-serif; text-anchor: middle" x="424.2" y="117.634723" transform="rotate(-0 424.2 117.634723)">initial_conflict?</text>
   </g>
   <g id="patch_18">
    <path d="M 424.2 79.440831 
Q 424.2 86.395701 424.2 91.338109 
" style="fill: none; stroke: #4d4d4d; stroke-width: 1.8; stroke-linecap: round"/>
    <path d="M 426.2 87.338109 
L 424.2 91.338109 
L 422.2 87.338109 
" style="fill: none; stroke: #4d4d4d; stroke-width: 1.8; stroke-linecap: round"/>
   </g>
   <g id="text_3">
    <text style="fill: #b64342; font: 700 9px 'Arial', 'DejaVu Sans', 'Liberation Sans', sans-serif; text-anchor: middle" x="646.6" y="117.581989" transform="rotate(-0 646.6 117.581989)">UNSAT</text>
   </g>
   <g id="patch_19">
    <path d="M 537.401137 115.24902 
Q 564.936559 115.24902 590.79493 115.24902 
" style="fill: none; stroke: #b64342; stroke-width: 1.5; stroke-linecap: round"/>
    <path d="M 586.79493 113.24902 
L 590.79493 115.24902 
L 586.79493 117.24902 
" style="fill: none; stroke: #b64342; stroke-width: 1.5; stroke-linecap: round"/>
   </g>
   <g id="text_4">
    <text style="fill: #b64342; font: 700 8px 'Arial', 'DejaVu Sans', 'Liberation Sans', sans-serif; text-anchor: middle" x="570.15" y="140.432135" transform="rotate(-0 570.15 140.432135)">yes</text>
   </g>
   <g id="text_5">
    <text style="fill: #767676; font: 700 9px 'Arial', 'DejaVu Sans', 'Liberation Sans', sans-serif; text-anchor: start" x="76.7" y="164.994087" transform="rotate(-0 76.7 164.994087)">solve() main loop</text>
   </g>
   <g id="text_6">
    <text style="fill: #ffffff; font: 700 10px 'Arial', 'DejaVu Sans', 'Liberation Sans', sans-serif; text-anchor: middle" x="424.2" y="204.061302" transform="rotate(-0 424.2 204.061302)">1. BCP: propagate()</text>
   </g>
   <g id="patch_20">
    <path d="M 424.2 137.144865 
Q 424.2 158.361005 424.2 177.564683 
" style="fill: none; stroke: #4d4d4d; stroke-width: 1.8; stroke-linecap: round"/>
    <path d="M 426.2 173.564683 
L 424.2 177.564683 
L 422.2 173.564683 
" style="fill: none; stroke: #4d4d4d; stroke-width: 1.8; stroke-linecap: round"/>
   </g>
   <g id="text_7">
    <text style="fill: #4d4d4d; font: 700 8px 'Arial', 'DejaVu Sans', 'Liberation Sans', sans-serif; text-anchor: middle" x="424.2" y="269.874308" transform="rotate(-0 424.2 269.874308)">conflict?</text>
   </g>
   <g id="patch_21">
    <path d="M 424.2 223.368433 
Q 424.2 226.344762 424.2 227.30863 
" style="fill: none; stroke: #4d4d4d; stroke-width: 1.8; stroke-linecap: round"/>
    <path d="M 426.2 223.30863 
L 424.2 227.30863 
L 422.2 223.30863 
" style="fill: none; stroke: #4d4d4d; stroke-width: 1.8; stroke-linecap: round"/>
   </g>
   <g id="patch_22">
    <path d="M 352.781051 267.229415 
Q 233.074796 231.884141 114.976944 266.754626 
" style="fill: none; stroke: #b64342; stroke-width: 1.5; stroke-linecap: round"/>
    <path d="M 119.379572 267.540033 
L 114.976944 266.754626 
L 118.246847 263.703768 
" style="fill: none; stroke: #b64342; stroke-width: 1.5; stroke-linecap: round"/>
   </g>
   <g id="text_8">
    <text style="fill: #b64342; font: 700 8px 'Arial', 'DejaVu Sans', 'Liberation Sans', sans-serif; text-anchor: middle" x="250.45" y="249.972531" transform="rotate(-0 250.45 249.972531)">yes (conflict)</text>
   </g>
   <g id="text_9">
    <text style="fill: #ffffff; font: 700 8px 'Arial', 'DejaVu Sans', 'Liberation Sans', sans-serif; text-anchor: middle" x="132.3" y="336.201064" transform="rotate(-0 132.3 336.201064)">level == 0 ?</text>
   </g>
   <g id="text_10">
    <text style="fill: #b64342; font: 700 9px 'Arial', 'DejaVu Sans', 'Liberation Sans', sans-serif; text-anchor: middle" x="132.3" y="389.521687" transform="rotate(-0 132.3 389.521687)">UNSAT</text>
   </g>
   <g id="patch_23">
    <path d="M 132.3 269.802991 
Q 132.3 291.678284 132.3 311.876526 
" style="fill: none; stroke: #b64342; stroke-width: 1.5; stroke-linecap: round"/>
    <path d="M 134.3 307.876526 
L 132.3 311.876526 
L 130.3 307.876526 
" style="fill: none; stroke: #b64342; stroke-width: 1.5; stroke-linecap: round"/>
   </g>
   <g id="patch_24">
    <path d="M 132.3 354.039428 
Q 132.3 360.330019 132.3 364.943558 
" style="fill: none; stroke: #b64342; stroke-width: 1.5; stroke-linecap: round"/>
    <path d="M 134.3 360.943558 
L 132.3 364.943558 
L 130.3 360.943558 
" style="fill: none; stroke: #b64342; stroke-width: 1.5; stroke-linecap: round"/>
   </g>
   <g id="text_11">
    <text style="fill: #b64342; font: 700 7px 'Arial', 'DejaVu Sans', 'Liberation Sans', sans-serif; text-anchor: middle" x="212.225" y="335.84997" transform="rotate(-0 212.225 335.84997)">yes</text>
   </g>
   <g id="text_12">
    <text style="fill: #ffffff; font: 700 8px 'Arial', 'DejaVu Sans', 'Liberation Sans', sans-serif; text-anchor: middle" x="132.3" y="296.40126" transform="rotate(-0 132.3 296.40126)">2. analyze()</text>
   </g>
   <g id="patch_25">
    <path d="M 132.3 313.557518 
Q 132.3 296.652338 132.3 281.088799 
" style="fill: none; stroke: #b64342; stroke-width: 1.2; stroke-linecap: round"/>
    <path d="M 130.3 285.088799 
L 132.3 281.088799 
L 134.3 285.088799 
" style="fill: none; stroke: #b64342; stroke-width: 1.2; stroke-linecap: round"/>
   </g>
   <g id="text_13">
    <text style="fill: #767676; font: 700 7px 'Arial', 'DejaVu Sans', 'Liberation Sans', sans-serif; text-anchor: middle" x="233.075" y="296.145792" transform="rotate(-0 233.075 296.145792)">no</text>
   </g>
   <g id="text_14">
    <text style="fill: #ffffff; font: 700 8px 'Arial', 'DejaVu Sans', 'Liberation Sans', sans-serif; text-anchor: middle" x="299.1" y="296.40126" transform="rotate(-0 299.1 296.40126)">3. cancel_until()</text>
   </g>
   <g id="patch_26">
    <path d="M 215.7 294.33126 
Q 215.7 294.33126 215.7 294.33126 
" style="fill: none; stroke: #4d4d4d; stroke-width: 1.8; stroke-linecap: round"/>
   </g>
   <g id="text_15">
    <text style="fill: #ffffff; font: 700 8px 'Arial', 'DejaVu Sans', 'Liberation Sans', sans-serif; text-anchor: middle" x="299.1" y="349.462665" transform="rotate(-0 299.1 349.462665)">4. record()</text>
   </g>
   <g id="patch_27">
    <path d="M 299.1 312.909553 
Q 299.1 320.861613 299.1 326.801212 
" style="fill: none; stroke: #4d4d4d; stroke-width: 1.8; stroke-linecap: round"/>
    <path d="M 301.1 322.801212 
L 299.1 326.801212 
L 297.1 322.801212 
" style="fill: none; stroke: #4d4d4d; stroke-width: 1.8; stroke-linecap: round"/>
   </g>
   <g id="text_16">
    <text style="fill: #ffffff; font: 700 8px 'Arial', 'DejaVu Sans', 'Liberation Sans', sans-serif; text-anchor: middle" x="299.1" y="402.524069" transform="rotate(-0 299.1 402.524069)">5. vsids_decay()</text>
   </g>
   <g id="patch_28">
    <path d="M 299.1 365.970957 
Q 299.1 373.923018 299.1 379.862617 
" style="fill: none; stroke: #4d4d4d; stroke-width: 1.8; stroke-linecap: round"/>
    <path d="M 301.1 375.862617 
L 299.1 379.862617 
L 297.1 375.862617 
" style="fill: none; stroke: #4d4d4d; stroke-width: 1.8; stroke-linecap: round"/>
   </g>
   <g id="patch_29">
    <path d="M 380.959491 399.179158 
Q 286.15515 320.116775 325.808034 204.630905 
" style="fill: none; stroke: #42949e; stroke-width: 1.2; stroke-linecap: round"/>
    <path d="M 322.617443 207.764614 
L 325.808034 204.630905 
L 326.400646 209.063603 
" style="fill: none; stroke: #42949e; stroke-width: 1.2; stroke-linecap: round"/>
   </g>
   <g id="text_17">
    <text style="fill: #42949e; font: 700 8px 'Arial', 'DejaVu Sans', 'Liberation Sans', sans-serif; text-anchor: middle" x="396.4" y="303.037686" transform="rotate(-0 396.4 303.037686)">continue</text>
   </g>
   <g id="text_18">
    <text style="fill: #272727; font: 700 9px 'Arial', 'DejaVu Sans', 'Liberation Sans', sans-serif; text-anchor: middle" x="618.8" y="270.129308" transform="rotate(-0 618.8 270.129308)">6. pick_branch_lit()</text>
   </g>
   <g id="patch_30">
    <path d="M 495.620328 267.233303 
Q 556.249702 249.6029 615.268728 266.764861 
" style="fill: none; stroke: #8bcf8b; stroke-width: 1.5; stroke-linecap: round"/>
    <path d="M 611.986263 263.727522 
L 615.268728 266.764861 
L 610.869378 267.568429 
" style="fill: none; stroke: #8bcf8b; stroke-width: 1.5; stroke-linecap: round"/>
   </g>
   <g id="text_19">
    <text style="fill: #8bcf8b; font: 700 8px 'Arial', 'DejaVu Sans', 'Liberation Sans', sans-serif; text-anchor: middle" x="528.45" y="253.288869" transform="rotate(-0 528.45 253.288869)">no (satisfied)</text>
   </g>
   <g id="text_20">
    <text style="fill: #272727; font: 700 8px 'Arial', 'DejaVu Sans', 'Liberation Sans', sans-serif" transform="translate(702.0925 318.710587)">next ==</text>
    <text style="fill: #272727; font: 700 8px 'Arial', 'DejaVu Sans', 'Liberation Sans', sans-serif" transform="translate(699.879375 327.160837)">UNDEF?</text>
   </g>
   <g id="text_21">
    <text style="fill: #8bcf8b; font: 700 10px 'Arial', 'DejaVu Sans', 'Liberation Sans', sans-serif; text-anchor: middle" x="716.1" y="376.515554" transform="rotate(-0 716.1 376.515554)">SAT</text>
   </g>
   <g id="patch_31">
    <path d="M 620.768686 286.044282 
Q 667.449551 293.99955 712.807844 301.729428 
" style="fill: none; stroke: #4d4d4d; stroke-width: 1.2; stroke-linecap: round"/>
    <path d="M 709.200686 299.085868 
L 712.807844 301.729428 
L 708.528701 303.029018 
" style="fill: none; stroke: #4d4d4d; stroke-width: 1.2; stroke-linecap: round"/>
   </g>
   <g id="patch_32">
    <path d="M 716.1 340.770029 
Q 716.1 347.393242 716.1 352.339404 
" style="fill: none; stroke: #8bcf8b; stroke-width: 1.5; stroke-linecap: round"/>
    <path d="M 718.1 348.339404 
L 716.1 352.339404 
L 714.1 348.339404 
" style="fill: none; stroke: #8bcf8b; stroke-width: 1.5; stroke-linecap: round"/>
   </g>
   <g id="text_22">
    <text style="fill: #8bcf8b; font: 700 7px 'Arial', 'DejaVu Sans', 'Liberation Sans', sans-serif; text-anchor: middle" x="792.55" y="322.584619" transform="rotate(-0 792.55 322.584619)">yes</text>
   </g>
   <g id="text_23">
    <text style="fill: #ffffff; font: 700 8px 'Arial', 'DejaVu Sans', 'Liberation Sans', sans-serif" transform="translate(581.451875 345.128415)">new_decision_level</text>
    <text style="fill: #ffffff; font: 700 8px 'Arial', 'DejaVu Sans', 'Liberation Sans', sans-serif" transform="translate(599.690625 353.699415)">enqueue()</text>
   </g>
   <g id="patch_33">
    <path d="M 660.5 322.858566 
Q 660.5 325.834895 660.5 327.469584 
" style="fill: none; stroke: #4d4d4d; stroke-width: 1.2; stroke-linecap: round"/>
    <path d="M 662.5 323.469584 
L 660.5 327.469584 
L 658.5 323.469584 
" style="fill: none; stroke: #4d4d4d; stroke-width: 1.2; stroke-linecap: round"/>
   </g>
   <g id="text_24">
    <text style="fill: #767676; font: 700 7px 'Arial', 'DejaVu Sans', 'Liberation Sans', sans-serif; text-anchor: middle" x="681.35" y="342.57452" transform="rotate(-0 681.35 342.57452)">no</text>
   </g>
   <g id="patch_34">
    <path d="M 701.764286 345.444542 
Q 669.437808 203.121664 524.842289 201.504547 
" style="fill: none; stroke: #3775ba; stroke-width: 1.2; stroke-linecap: round"/>
    <path d="M 528.819673 203.549154 
L 524.842289 201.504547 
L 528.864405 199.549404 
" style="fill: none; stroke: #3775ba; stroke-width: 1.2; stroke-linecap: round"/>
   </g>
   <g id="text_25">
    <text style="fill: #3775ba; font: 700 7px 'Arial', 'DejaVu Sans', 'Liberation Sans', sans-serif; text-anchor: middle" x="618.8" y="286.196778" transform="rotate(-0 618.8 286.196778)">loop</text>
   </g>
   <g id="text_26">
    <text style="fill: #272727; font: 700 14px 'Arial', 'DejaVu Sans', 'Liberation Sans', sans-serif; text-anchor: middle" x="424.2" y="17.391562" transform="rotate(-0 424.2 17.391562)">CDCL solve() Main Loop — Algorithm Flowchart</text>
   </g>
   <g id="legend_1">
    <g id="patch_35">
     <path d="M 227.550625 622.387428 
L 243.550625 622.387428 
L 243.550625 616.787428 
L 227.550625 616.787428 
z
" style="fill: #0f4d92"/>
    </g>
    <g id="text_27">
     <text style="font: 8px 'Arial', 'DejaVu Sans', 'Liberation Sans', sans-serif; text-anchor: start" x="249.950625" y="622.387428" transform="rotate(-0 249.950625 622.387428)">BCP / Propagation</text>
    </g>
    <g id="patch_36">
     <path d="M 332.069375 622.387428 
L 348.069375 622.387428 
L 348.069375 616.787428 
L 332.069375 616.787428 
z
" style="fill: #b64342"/>
    </g>
    <g id="text_28">
     <text style="font: 8px 'Arial', 'DejaVu Sans', 'Liberation Sans', sans-serif; text-anchor: start" x="354.469375" y="622.387428" transform="rotate(-0 354.469375 622.387428)">Conflict path</text>
    </g>
    <g id="patch_37">
     <path d="M 414.935625 622.387428 
L 430.935625 622.387428 
L 430.935625 616.787428 
L 414.935625 616.787428 
z
" style="fill: #8bcf8b"/>
    </g>
    <g id="text_29">
     <text style="font: 8px 'Arial', 'DejaVu Sans', 'Liberation Sans', sans-serif; text-anchor: start" x="437.335625" y="622.387428" transform="rotate(-0 437.335625 622.387428)">Decision / SAT path</text>
    </g>
    <g id="patch_38">
     <path d="M 523.301875 622.387428 
L 539.301875 622.387428 
L 539.301875 616.787428 
L 523.301875 616.787428 
z
" style="fill: #42949e"/>
    </g>
    <g id="text_30">
     <text style="font: 8px 'Arial', 'DejaVu Sans', 'Liberation Sans', sans-serif; text-anchor: start" x="545.701875" y="622.387428" transform="rotate(-0 545.701875 622.387428)">Learning &amp; backtrack</text>
    </g>
   </g>
  </g>
 </g>
 <defs>
  <clipPath id="p14f445ba3a">
   <rect x="7.2" y="22.391562" width="834" height="596.9408"/>
  </clipPath>
 </defs>
</svg>
