<?xml version="1.0" encoding="utf-8" standalone="no"?>
<!DOCTYPE svg PUBLIC "-//W3C//DTD SVG 1.1//EN"
  "http://www.w3.org/Graphics/SVG/1.1/DTD/svg11.dtd">
<svg xmlns:xlink="http://www.w3.org/1999/xlink" width="576pt" height="360pt" viewBox="0 0 576 360" xmlns="http://www.w3.org/2000/svg" version="1.1">
 <metadata>
  <rdf:RDF xmlns:dc="http://purl.org/dc/elements/1.1/" xmlns:cc="http://creativecommons.org/ns#" xmlns:rdf="http://www.w3.org/1999/02/22-rdf-syntax-ns#">
   <cc:Work>
    <dc:type rdf:resource="http://purl.org/dc/dcmitype/StillImage"/>
    <dc:date>2026-05-10T21:46:59.360918</dc:date>
    <dc:format>image/svg+xml</dc:format>
    <dc:creator>
     <cc:Agent>
      <dc:title>Matplotlib v3.8.0, https://matplotlib.org/</dc:title>
     </cc:Agent>
    </dc:creator>
   </cc:Work>
  </rdf:RDF>
 </metadata>
 <defs>
  <style type="text/css">*{stroke-linejoin: round; stroke-linecap: butt}</style>
 </defs>
 <g id="figure_1">
  <g id="patch_1">
   <path d="M 0 360 
L 576 360 
L 576 0 
L 0 0 
z
" style="fill: #ffffff"/>
  </g>
  <g id="axes_1">
   <g id="patch_2">
    <path d="M 58.16 317.32 
L 549.299301 317.32 
L 549.299301 26.88 
L 58.16 26.88 
z
" style="fill: #ffffff"/>
   </g>
   <g id="PathCollection_1">
    <path d="M 114.829919 294.672502 
C 118.077981 294.672502 121.193447 293.382034 123.490173 291.085307 
C 125.7869 288.788581 127.077368 285.673115 127.077368 282.425053 
C 127.077368 279.176992 125.7869 276.061526 123.490173 273.764799 
C 121.193447 271.468073 118.077981 270.177605 114.829919 270.177605 
C 111.581858 270.177605 108.466391 271.468073 106.169665 273.764799 
C 103.872939 276.061526 102.582471 279.176992 102.582471 282.425053 
C 102.582471 285.673115 103.872939 288.788581 106.169665 291.085307 
C 108.466391 293.382034 111.581858 294.672502 114.829919 294.672502 
z
" clip-path="url(#pa4cd7154a6)" style="fill: #2196f3; fill-opacity: 0.7; stroke: #000000; stroke-opacity: 0.7"/>
    <path d="M 166.348028 269.470536 
C 170.94148 269.470536 175.347415 267.645538 178.595476 264.397477 
C 181.843538 261.149415 183.668536 256.74348 183.668536 252.150028 
C 183.668536 247.556575 181.843538 243.150641 178.595476 239.902579 
C 175.347415 236.654518 170.94148 234.82952 166.348028 234.82952 
C 161.754575 234.82952 157.34864 236.654518 154.100579 239.902579 
C 150.852518 243.150641 149.02752 247.556575 149.02752 252.150028 
C 149.02752 256.74348 150.852518 261.149415 154.100579 264.397477 
C 157.34864 267.645538 161.754575 269.470536 166.348028 269.470536 
z
" clip-path="url(#pa4cd7154a6)" style="fill: #2196f3; fill-opacity: 0.7; stroke: #000000; stroke-opacity: 0.7"/>
    <path d="M 209.279785 232.119949 
C 210.732362 232.119949 212.125641 231.542834 213.152768 230.515706 
C 214.179895 229.488579 214.75701 228.0953 214.75701 226.642723 
C 214.75701 225.190146 214.179895 223.796867 213.152768 222.76974 
C 212.125641 221.742612 210.732362 221.165497 209.279785 221.165497 
C 207.827208 221.165497 206.433929 221.742612 205.406801 222.76974 
C 204.379674 223.796867 203.802559 225.190146 203.802559 226.642723 
C 203.802559 228.0953 204.379674 229.488579 205.406801 230.515706 
C 206.433929 231.542834 207.827208 232.119949 209.279785 232.119949 
z
" clip-path="url(#pa4cd7154a6)" style="fill: #2196f3; fill-opacity: 0.7; stroke: #000000; stroke-opacity: 0.7"/>
    <path d="M 252.211542 218.932698 
C 256.804994 218.932698 261.210929 217.1077 264.458991 213.859639 
C 267.707052 210.611578 269.53205 206.205643 269.53205 201.61219 
C 269.53205 197.018738 267.707052 192.612803 264.458991 189.364741 
C 261.210929 186.11668 256.804994 184.291682 252.211542 184.291682 
C 247.618089 184.291682 243.212155 186.11668 239.964093 189.364741 
C 236.716032 192.612803 234.891034 197.018738 234.891034 201.61219 
C 234.891034 206.205643 236.716032 210.611578 239.964093 213.859639 
C 243.212155 217.1077 247.618089 218.932698 252.211542 218.932698 
z
" clip-path="url(#pa4cd7154a6)" style="fill: #2196f3; fill-opacity: 0.7; stroke: #000000; stroke-opacity: 0.7"/>
    <path d="M 295.143299 181.343725 
C 296.595876 181.343725 297.989155 180.76661 299.016282 179.739483 
C 300.043409 178.712355 300.620525 177.319076 300.620525 175.866499 
C 300.620525 174.413922 300.043409 173.020643 299.016282 171.993516 
C 297.989155 170.966389 296.595876 170.389274 295.143299 170.389274 
C 293.690722 170.389274 292.297443 170.966389 291.270316 171.993516 
C 290.243188 173.020643 289.666073 174.413922 289.666073 175.866499 
C 289.666073 177.319076 290.243188 178.712355 291.270316 179.739483 
C 292.297443 180.76661 293.690722 181.343725 295.143299 181.343725 
z
" clip-path="url(#pa4cd7154a6)" style="fill: #2196f3; fill-opacity: 0.7; stroke: #000000; stroke-opacity: 0.7"/>
    <path d="M 338.075056 155.83642 
C 339.527633 155.83642 340.920912 155.259305 341.948039 154.232178 
C 342.975167 153.20505 343.552282 151.811772 343.552282 150.359194 
C 343.552282 148.906617 342.975167 147.513338 341.948039 146.486211 
C 340.920912 145.459084 339.527633 144.881969 338.075056 144.881969 
C 336.622479 144.881969 335.2292 145.459084 334.202073 146.486211 
C 333.174945 147.513338 332.59783 148.906617 332.59783 150.359194 
C 332.59783 151.811772 333.174945 153.20505 334.202073 154.232178 
C 335.2292 155.259305 336.622479 155.83642 338.075056 155.83642 
z
" clip-path="url(#pa4cd7154a6)" style="fill: #2196f3; fill-opacity: 0.7; stroke: #000000; stroke-opacity: 0.7"/>
    <path d="M 381.006813 130.090729 
C 382.45939 130.090729 383.852669 129.513614 384.879796 128.486487 
C 385.906924 127.45936 386.484039 126.066081 386.484039 124.613503 
C 386.484039 123.160926 385.906924 121.767647 384.879796 120.74052 
C 383.852669 119.713393 382.45939 119.136278 381.006813 119.136278 
C 379.554236 119.136278 378.160957 119.713393 377.13383 120.74052 
C 376.106703 121.767647 375.529587 123.160926 375.529587 124.613503 
C 375.529587 126.066081 376.106703 127.45936 377.13383 128.486487 
C 378.160957 129.513614 379.554236 130.090729 381.006813 130.090729 
z
" clip-path="url(#pa4cd7154a6)" style="fill: #2196f3; fill-opacity: 0.7; stroke: #000000; stroke-opacity: 0.7"/>
    <path d="M 423.93857 104.583424 
C 425.391147 104.583424 426.784426 104.006309 427.811553 102.979182 
C 428.838681 101.952055 429.415796 100.558776 429.415796 99.106198 
C 429.415796 97.653621 428.838681 96.260342 427.811553 95.233215 
C 426.784426 94.206088 425.391147 93.628973 423.93857 93.628973 
C 422.485993 93.628973 421.092714 94.206088 420.065587 95.233215 
C 419.03846 96.260342 418.461345 97.653621 418.461345 99.106198 
C 418.461345 100.558776 419.03846 101.952055 420.065587 102.979182 
C 421.092714 104.006309 422.485993 104.583424 423.93857 104.583424 
z
" clip-path="url(#pa4cd7154a6)" style="fill: #2196f3; fill-opacity: 0.7; stroke: #000000; stroke-opacity: 0.7"/>
    <path d="M 466.870327 80.744821 
C 468.322904 80.744821 469.716183 80.167706 470.743311 79.140579 
C 471.770438 78.113452 472.347553 76.720173 472.347553 75.267596 
C 472.347553 73.815019 471.770438 72.42174 470.743311 71.394612 
C 469.716183 70.367485 468.322904 69.79037 466.870327 69.79037 
C 465.41775 69.79037 464.024471 70.367485 462.997344 71.394612 
C 461.970217 72.42174 461.393102 73.815019 461.393102 75.267596 
C 461.393102 76.720173 461.970217 78.113452 462.997344 79.140579 
C 464.024471 80.167706 465.41775 80.744821 466.870327 80.744821 
z
" clip-path="url(#pa4cd7154a6)" style="fill: #2196f3; fill-opacity: 0.7; stroke: #000000; stroke-opacity: 0.7"/>
    <path d="M 509.802084 55.714289 
C 511.254661 55.714289 512.64794 55.137173 513.675068 54.110046 
C 514.702195 53.082919 515.27931 51.68964 515.27931 50.237063 
C 515.27931 48.784486 514.702195 47.391207 513.675068 46.36408 
C 512.64794 45.336952 511.254661 44.759837 509.802084 44.759837 
C 508.349507 44.759837 506.956228 45.336952 505.929101 46.36408 
C 504.901974 47.391207 504.324859 48.784486 504.324859 50.237063 
C 504.324859 51.68964 504.901974 53.082919 505.929101 54.110046 
C 506.956228 55.137173 508.349507 55.714289 509.802084 55.714289 
z
" clip-path="url(#pa4cd7154a6)" style="fill: #2196f3; fill-opacity: 0.7; stroke: #000000; stroke-opacity: 0.7"/>
   </g>
   <g id="matplotlib.axis_1">
    <g id="xtick_1">
     <g id="line2d_1">
      <defs>
       <path id="m695ce94688" d="M 0 0 
L 0 3.5 
" style="stroke: #000000; stroke-width: 0.8"/>
      </defs>
      <g>
       <use xlink:href="#m695ce94688" x="80.484514" y="317.32" style="stroke: #000000; stroke-width: 0.8"/>
      </g>
     </g>
     <g id="text_1">
      <!-- 0 -->
      <g transform="translate(77.303264 331.918437) scale(0.1 -0.1)">
       <defs>
        <path id="DejaVuSans-30" d="M 2034 4250 
Q 1547 4250 1301 3770 
Q 1056 3291 1056 2328 
Q 1056 1369 1301 889 
Q 1547 409 2034 409 
Q 2525 409 2770 889 
Q 3016 1369 3016 2328 
Q 3016 3291 2770 3770 
Q 2525 4250 2034 4250 
z
M 2034 4750 
Q 2819 4750 3233 4129 
Q 3647 3509 3647 2328 
Q 3647 1150 3233 529 
Q 2819 -91 2034 -91 
Q 1250 -91 836 529 
Q 422 1150 422 2328 
Q 422 3509 836 4129 
Q 1250 4750 2034 4750 
z
" transform="scale(0.015625)"/>
       </defs>
       <use xlink:href="#DejaVuSans-30"/>
      </g>
     </g>
    </g>
    <g id="xtick_2">
     <g id="line2d_2">
      <g>
       <use xlink:href="#m695ce94688" x="166.348028" y="317.32" style="stroke: #000000; stroke-width: 0.8"/>
      </g>
     </g>
     <g id="text_2">
      <!-- 50 -->
      <g transform="translate(159.985528 331.918437) scale(0.1 -0.1)">
       <defs>
        <path id="DejaVuSans-35" d="M 691 4666 
L 3169 4666 
L 3169 4134 
L 1269 4134 
L 1269 2991 
Q 1406 3038 1543 3061 
Q 1681 3084 1819 3084 
Q 2600 3084 3056 2656 
Q 3513 2228 3513 1497 
Q 3513 744 3044 326 
Q 2575 -91 1722 -91 
Q 1428 -91 1123 -41 
Q 819 9 494 109 
L 494 744 
Q 775 591 1075 516 
Q 1375 441 1709 441 
Q 2250 441 2565 725 
Q 2881 1009 2881 1497 
Q 2881 1984 2565 2268 
Q 2250 2553 1709 2553 
Q 1456 2553 1204 2497 
Q 953 2441 691 2322 
L 691 4666 
z
" transform="scale(0.015625)"/>
       </defs>
       <use xlink:href="#DejaVuSans-35"/>
       <use xlink:href="#DejaVuSans-30" x="63.623047"/>
      </g>
     </g>
    </g>
    <g id="xtick_3">
     <g id="line2d_3">
      <g>
       <use xlink:href="#m695ce94688" x="252.211542" y="317.32" style="stroke: #000000; stroke-width: 0.8"/>
      </g>
     </g>
     <g id="text_3">
      <!-- 100 -->
      <g transform="translate(242.667792 331.918437) scale(0.1 -0.1)">
       <defs>
        <path id="DejaVuSans-31" d="M 794 531 
L 1825 531 
L 1825 4091 
L 703 3866 
L 703 4441 
L 1819 4666 
L 2450 4666 
L 2450 531 
L 3481 531 
L 3481 0 
L 794 0 
L 794 531 
z
" transform="scale(0.015625)"/>
       </defs>
       <use xlink:href="#DejaVuSans-31"/>
       <use xlink:href="#DejaVuSans-30" x="63.623047"/>
       <use xlink:href="#DejaVuSans-30" x="127.246094"/>
      </g>
     </g>
    </g>
    <g id="xtick_4">
     <g id="line2d_4">
      <g>
       <use xlink:href="#m695ce94688" x="338.075056" y="317.32" style="stroke: #000000; stroke-width: 0.8"/>
      </g>
     </g>
     <g id="text_4">
      <!-- 150 -->
      <g transform="translate(328.531306 331.918437) scale(0.1 -0.1)">
       <use xlink:href="#DejaVuSans-31"/>
       <use xlink:href="#DejaVuSans-35" x="63.623047"/>
       <use xlink:href="#DejaVuSans-30" x="127.246094"/>
      </g>
     </g>
    </g>
    <g id="xtick_5">
     <g id="line2d_5">
      <g>
       <use xlink:href="#m695ce94688" x="423.93857" y="317.32" style="stroke: #000000; stroke-width: 0.8"/>
      </g>
     </g>
     <g id="text_5">
      <!-- 200 -->
      <g transform="translate(414.39482 331.918437) scale(0.1 -0.1)">
       <defs>
        <path id="DejaVuSans-32" d="M 1228 531 
L 3431 531 
L 3431 0 
L 469 0 
L 469 531 
Q 828 903 1448 1529 
Q 2069 2156 2228 2338 
Q 2531 2678 2651 2914 
Q 2772 3150 2772 3378 
Q 2772 3750 2511 3984 
Q 2250 4219 1831 4219 
Q 1534 4219 1204 4116 
Q 875 4013 500 3803 
L 500 4441 
Q 881 4594 1212 4672 
Q 1544 4750 1819 4750 
Q 2544 4750 2975 4387 
Q 3406 4025 3406 3419 
Q 3406 3131 3298 2873 
Q 3191 2616 2906 2266 
Q 2828 2175 2409 1742 
Q 1991 1309 1228 531 
z
" transform="scale(0.015625)"/>
       </defs>
       <use xlink:href="#DejaVuSans-32"/>
       <use xlink:href="#DejaVuSans-30" x="63.623047"/>
       <use xlink:href="#DejaVuSans-30" x="127.246094"/>
      </g>
     </g>
    </g>
    <g id="xtick_6">
     <g id="line2d_6">
      <g>
       <use xlink:href="#m695ce94688" x="509.802084" y="317.32" style="stroke: #000000; stroke-width: 0.8"/>
      </g>
     </g>
     <g id="text_6">
      <!-- 250 -->
      <g transform="translate(500.258334 331.918437) scale(0.1 -0.1)">
       <use xlink:href="#DejaVuSans-32"/>
       <use xlink:href="#DejaVuSans-35" x="63.623047"/>
       <use xlink:href="#DejaVuSans-30" x="127.246094"/>
      </g>
     </g>
    </g>
    <g id="text_7">
     <!-- Variables -->
     <g transform="translate(278.59465 346.356406) scale(0.11 -0.11)">
      <defs>
       <path id="DejaVuSans-56" d="M 1831 0 
L 50 4666 
L 709 4666 
L 2188 738 
L 3669 4666 
L 4325 4666 
L 2547 0 
L 1831 0 
z
" transform="scale(0.015625)"/>
       <path id="DejaVuSans-61" d="M 2194 1759 
Q 1497 1759 1228 1600 
Q 959 1441 959 1056 
Q 959 750 1161 570 
Q 1363 391 1709 391 
Q 2188 391 2477 730 
Q 2766 1069 2766 1631 
L 2766 1759 
L 2194 1759 
z
M 3341 1997 
L 3341 0 
L 2766 0 
L 2766 531 
Q 2569 213 2275 61 
Q 1981 -91 1556 -91 
Q 1019 -91 701 211 
Q 384 513 384 1019 
Q 384 1609 779 1909 
Q 1175 2209 1959 2209 
L 2766 2209 
L 2766 2266 
Q 2766 2663 2505 2880 
Q 2244 3097 1772 3097 
Q 1472 3097 1187 3025 
Q 903 2953 641 2809 
L 641 3341 
Q 956 3463 1253 3523 
Q 1550 3584 1831 3584 
Q 2591 3584 2966 3190 
Q 3341 2797 3341 1997 
z
" transform="scale(0.015625)"/>
       <path id="DejaVuSans-72" d="M 2631 2963 
Q 2534 3019 2420 3045 
Q 2306 3072 2169 3072 
Q 1681 3072 1420 2755 
Q 1159 2438 1159 1844 
L 1159 0 
L 581 0 
L 581 3500 
L 1159 3500 
L 1159 2956 
Q 1341 3275 1631 3429 
Q 1922 3584 2338 3584 
Q 2397 3584 2469 3576 
Q 2541 3569 2628 3553 
L 2631 2963 
z
" transform="scale(0.015625)"/>
       <path id="DejaVuSans-69" d="M 603 3500 
L 1178 3500 
L 1178 0 
L 603 0 
L 603 3500 
z
M 603 4863 
L 1178 4863 
L 1178 4134 
L 603 4134 
L 603 4863 
z
" transform="scale(0.015625)"/>
       <path id="DejaVuSans-62" d="M 3116 1747 
Q 3116 2381 2855 2742 
Q 2594 3103 2138 3103 
Q 1681 3103 1420 2742 
Q 1159 2381 1159 1747 
Q 1159 1113 1420 752 
Q 1681 391 2138 391 
Q 2594 391 2855 752 
Q 3116 1113 3116 1747 
z
M 1159 2969 
Q 1341 3281 1617 3432 
Q 1894 3584 2278 3584 
Q 2916 3584 3314 3078 
Q 3713 2572 3713 1747 
Q 3713 922 3314 415 
Q 2916 -91 2278 -91 
Q 1894 -91 1617 61 
Q 1341 213 1159 525 
L 1159 0 
L 581 0 
L 581 4863 
L 1159 4863 
L 1159 2969 
z
" transform="scale(0.015625)"/>
       <path id="DejaVuSans-6c" d="M 603 4863 
L 1178 4863 
L 1178 0 
L 603 0 
L 603 4863 
z
" transform="scale(0.015625)"/>
       <path id="DejaVuSans-65" d="M 3597 1894 
L 3597 1613 
L 953 1613 
Q 991 1019 1311 708 
Q 1631 397 2203 397 
Q 2534 397 2845 478 
Q 3156 559 3463 722 
L 3463 178 
Q 3153 47 2828 -22 
Q 2503 -91 2169 -91 
Q 1331 -91 842 396 
Q 353 884 353 1716 
Q 353 2575 817 3079 
Q 1281 3584 2069 3584 
Q 2775 3584 3186 3129 
Q 3597 2675 3597 1894 
z
M 3022 2063 
Q 3016 2534 2758 2815 
Q 2500 3097 2075 3097 
Q 1594 3097 1305 2825 
Q 1016 2553 972 2059 
L 3022 2063 
z
" transform="scale(0.015625)"/>
       <path id="DejaVuSans-73" d="M 2834 3397 
L 2834 2853 
Q 2591 2978 2328 3040 
Q 2066 3103 1784 3103 
Q 1356 3103 1142 2972 
Q 928 2841 928 2578 
Q 928 2378 1081 2264 
Q 1234 2150 1697 2047 
L 1894 2003 
Q 2506 1872 2764 1633 
Q 3022 1394 3022 966 
Q 3022 478 2636 193 
Q 2250 -91 1575 -91 
Q 1294 -91 989 -36 
Q 684 19 347 128 
L 347 722 
Q 666 556 975 473 
Q 1284 391 1588 391 
Q 1994 391 2212 530 
Q 2431 669 2431 922 
Q 2431 1156 2273 1281 
Q 2116 1406 1581 1522 
L 1381 1569 
Q 847 1681 609 1914 
Q 372 2147 372 2553 
Q 372 3047 722 3315 
Q 1072 3584 1716 3584 
Q 2034 3584 2315 3537 
Q 2597 3491 2834 3397 
z
" transform="scale(0.015625)"/>
      </defs>
      <use xlink:href="#DejaVuSans-56"/>
      <use xlink:href="#DejaVuSans-61" x="60.658203"/>
      <use xlink:href="#DejaVuSans-72" x="121.9375"/>
      <use xlink:href="#DejaVuSans-69" x="163.050781"/>
      <use xlink:href="#DejaVuSans-61" x="190.833984"/>
      <use xlink:href="#DejaVuSans-62" x="252.113281"/>
      <use xlink:href="#DejaVuSans-6c" x="315.589844"/>
      <use xlink:href="#DejaVuSans-65" x="343.373047"/>
      <use xlink:href="#DejaVuSans-73" x="404.896484"/>
     </g>
    </g>
   </g>
   <g id="matplotlib.axis_2">
    <g id="ytick_1">
     <g id="line2d_7">
      <defs>
       <path id="ma878765cb8" d="M 0 0 
L -3.5 0 
" style="stroke: #000000; stroke-width: 0.8"/>
      </defs>
      <g>
       <use xlink:href="#ma878765cb8" x="58.16" y="304.118182" style="stroke: #000000; stroke-width: 0.8"/>
      </g>
     </g>
     <g id="text_8">
      <!-- 0 -->
      <g transform="translate(44.7975 307.917401) scale(0.1 -0.1)">
       <use xlink:href="#DejaVuSans-30"/>
      </g>
     </g>
    </g>
    <g id="ytick_2">
     <g id="line2d_8">
      <g>
       <use xlink:href="#ma878765cb8" x="58.16" y="256.440976" style="stroke: #000000; stroke-width: 0.8"/>
      </g>
     </g>
     <g id="text_9">
      <!-- 200 -->
      <g transform="translate(32.0725 260.240195) scale(0.1 -0.1)">
       <use xlink:href="#DejaVuSans-32"/>
       <use xlink:href="#DejaVuSans-30" x="63.623047"/>
       <use xlink:href="#DejaVuSans-30" x="127.246094"/>
      </g>
     </g>
    </g>
    <g id="ytick_3">
     <g id="line2d_9">
      <g>
       <use xlink:href="#ma878765cb8" x="58.16" y="208.763771" style="stroke: #000000; stroke-width: 0.8"/>
      </g>
     </g>
     <g id="text_10">
      <!-- 400 -->
      <g transform="translate(32.0725 212.56299) scale(0.1 -0.1)">
       <defs>
        <path id="DejaVuSans-34" d="M 2419 4116 
L 825 1625 
L 2419 1625 
L 2419 4116 
z
M 2253 4666 
L 3047 4666 
L 3047 1625 
L 3713 1625 
L 3713 1100 
L 3047 1100 
L 3047 0 
L 2419 0 
L 2419 1100 
L 313 1100 
L 313 1709 
L 2253 4666 
z
" transform="scale(0.015625)"/>
       </defs>
       <use xlink:href="#DejaVuSans-34"/>
       <use xlink:href="#DejaVuSans-30" x="63.623047"/>
       <use xlink:href="#DejaVuSans-30" x="127.246094"/>
      </g>
     </g>
    </g>
    <g id="ytick_4">
     <g id="line2d_10">
      <g>
       <use xlink:href="#ma878765cb8" x="58.16" y="161.086566" style="stroke: #000000; stroke-width: 0.8"/>
      </g>
     </g>
     <g id="text_11">
      <!-- 600 -->
      <g transform="translate(32.0725 164.885784) scale(0.1 -0.1)">
       <defs>
        <path id="DejaVuSans-36" d="M 2113 2584 
Q 1688 2584 1439 2293 
Q 1191 2003 1191 1497 
Q 1191 994 1439 701 
Q 1688 409 2113 409 
Q 2538 409 2786 701 
Q 3034 994 3034 1497 
Q 3034 2003 2786 2293 
Q 2538 2584 2113 2584 
z
M 3366 4563 
L 3366 3988 
Q 3128 4100 2886 4159 
Q 2644 4219 2406 4219 
Q 1781 4219 1451 3797 
Q 1122 3375 1075 2522 
Q 1259 2794 1537 2939 
Q 1816 3084 2150 3084 
Q 2853 3084 3261 2657 
Q 3669 2231 3669 1497 
Q 3669 778 3244 343 
Q 2819 -91 2113 -91 
Q 1303 -91 875 529 
Q 447 1150 447 2328 
Q 447 3434 972 4092 
Q 1497 4750 2381 4750 
Q 2619 4750 2861 4703 
Q 3103 4656 3366 4563 
z
" transform="scale(0.015625)"/>
       </defs>
       <use xlink:href="#DejaVuSans-36"/>
       <use xlink:href="#DejaVuSans-30" x="63.623047"/>
       <use xlink:href="#DejaVuSans-30" x="127.246094"/>
      </g>
     </g>
    </g>
    <g id="ytick_5">
     <g id="line2d_11">
      <g>
       <use xlink:href="#ma878765cb8" x="58.16" y="113.40936" style="stroke: #000000; stroke-width: 0.8"/>
      </g>
     </g>
     <g id="text_12">
      <!-- 800 -->
      <g transform="translate(32.0725 117.208579) scale(0.1 -0.1)">
       <defs>
        <path id="DejaVuSans-38" d="M 2034 2216 
Q 1584 2216 1326 1975 
Q 1069 1734 1069 1313 
Q 1069 891 1326 650 
Q 1584 409 2034 409 
Q 2484 409 2743 651 
Q 3003 894 3003 1313 
Q 3003 1734 2745 1975 
Q 2488 2216 2034 2216 
z
M 1403 2484 
Q 997 2584 770 2862 
Q 544 3141 544 3541 
Q 544 4100 942 4425 
Q 1341 4750 2034 4750 
Q 2731 4750 3128 4425 
Q 3525 4100 3525 3541 
Q 3525 3141 3298 2862 
Q 3072 2584 2669 2484 
Q 3125 2378 3379 2068 
Q 3634 1759 3634 1313 
Q 3634 634 3220 271 
Q 2806 -91 2034 -91 
Q 1263 -91 848 271 
Q 434 634 434 1313 
Q 434 1759 690 2068 
Q 947 2378 1403 2484 
z
M 1172 3481 
Q 1172 3119 1398 2916 
Q 1625 2713 2034 2713 
Q 2441 2713 2670 2916 
Q 2900 3119 2900 3481 
Q 2900 3844 2670 4047 
Q 2441 4250 2034 4250 
Q 1625 4250 1398 4047 
Q 1172 3844 1172 3481 
z
" transform="scale(0.015625)"/>
       </defs>
       <use xlink:href="#DejaVuSans-38"/>
       <use xlink:href="#DejaVuSans-30" x="63.623047"/>
       <use xlink:href="#DejaVuSans-30" x="127.246094"/>
      </g>
     </g>
    </g>
    <g id="ytick_6">
     <g id="line2d_12">
      <g>
       <use xlink:href="#ma878765cb8" x="58.16" y="65.732155" style="stroke: #000000; stroke-width: 0.8"/>
      </g>
     </g>
     <g id="text_13">
      <!-- 1000 -->
      <g transform="translate(25.71 69.531373) scale(0.1 -0.1)">
       <use xlink:href="#DejaVuSans-31"/>
       <use xlink:href="#DejaVuSans-30" x="63.623047"/>
       <use xlink:href="#DejaVuSans-30" x="127.246094"/>
       <use xlink:href="#DejaVuSans-30" x="190.869141"/>
      </g>
     </g>
    </g>
    <g id="text_14">
     <!-- Clauses -->
     <g transform="translate(19.422344 193.439141) rotate(-90) scale(0.11 -0.11)">
      <defs>
       <path id="DejaVuSans-43" d="M 4122 4306 
L 4122 3641 
Q 3803 3938 3442 4084 
Q 3081 4231 2675 4231 
Q 1875 4231 1450 3742 
Q 1025 3253 1025 2328 
Q 1025 1406 1450 917 
Q 1875 428 2675 428 
Q 3081 428 3442 575 
Q 3803 722 4122 1019 
L 4122 359 
Q 3791 134 3420 21 
Q 3050 -91 2638 -91 
Q 1578 -91 968 557 
Q 359 1206 359 2328 
Q 359 3453 968 4101 
Q 1578 4750 2638 4750 
Q 3056 4750 3426 4639 
Q 3797 4528 4122 4306 
z
" transform="scale(0.015625)"/>
       <path id="DejaVuSans-75" d="M 544 1381 
L 544 3500 
L 1119 3500 
L 1119 1403 
Q 1119 906 1312 657 
Q 1506 409 1894 409 
Q 2359 409 2629 706 
Q 2900 1003 2900 1516 
L 2900 3500 
L 3475 3500 
L 3475 0 
L 2900 0 
L 2900 538 
Q 2691 219 2414 64 
Q 2138 -91 1772 -91 
Q 1169 -91 856 284 
Q 544 659 544 1381 
z
M 1991 3584 
L 1991 3584 
z
" transform="scale(0.015625)"/>
      </defs>
      <use xlink:href="#DejaVuSans-43"/>
      <use xlink:href="#DejaVuSans-6c" x="69.824219"/>
      <use xlink:href="#DejaVuSans-61" x="97.607422"/>
      <use xlink:href="#DejaVuSans-75" x="158.886719"/>
      <use xlink:href="#DejaVuSans-73" x="222.265625"/>
      <use xlink:href="#DejaVuSans-65" x="274.365234"/>
      <use xlink:href="#DejaVuSans-73" x="335.888672"/>
     </g>
    </g>
   </g>
   <g id="line2d_13">
    <path d="M 80.484514 304.118182 
L 526.974787 40.081818 
" clip-path="url(#pa4cd7154a6)" style="fill: none; stroke-dasharray: 5.55,2.4; stroke-dashoffset: 0; stroke: #000000; stroke-opacity: 0.3; stroke-width: 1.5"/>
   </g>
   <g id="patch_3">
    <path d="M 58.16 317.32 
L 58.16 26.88 
" style="fill: none; stroke: #000000; stroke-width: 0.8; stroke-linejoin: miter; stroke-linecap: square"/>
   </g>
   <g id="patch_4">
    <path d="M 549.299301 317.32 
L 549.299301 26.88 
" style="fill: none; stroke: #000000; stroke-width: 0.8; stroke-linejoin: miter; stroke-linecap: square"/>
   </g>
   <g id="patch_5">
    <path d="M 58.16 317.32 
L 549.299301 317.32 
" style="fill: none; stroke: #000000; stroke-width: 0.8; stroke-linejoin: miter; stroke-linecap: square"/>
   </g>
   <g id="patch_6">
    <path d="M 58.16 26.88 
L 549.299301 26.88 
" style="fill: none; stroke: #000000; stroke-width: 0.8; stroke-linejoin: miter; stroke-linecap: square"/>
   </g>
   <g id="text_15">
    <!-- uf20-91 -->
    <g transform="translate(119.829919 274.425053) scale(0.08 -0.08)">
     <defs>
      <path id="DejaVuSans-66" d="M 2375 4863 
L 2375 4384 
L 1825 4384 
Q 1516 4384 1395 4259 
Q 1275 4134 1275 3809 
L 1275 3500 
L 2222 3500 
L 2222 3053 
L 1275 3053 
L 1275 0 
L 697 0 
L 697 3053 
L 147 3053 
L 147 3500 
L 697 3500 
L 697 3744 
Q 697 4328 969 4595 
Q 1241 4863 1831 4863 
L 2375 4863 
z
" transform="scale(0.015625)"/>
      <path id="DejaVuSans-2d" d="M 313 2009 
L 1997 2009 
L 1997 1497 
L 313 1497 
L 313 2009 
z
" transform="scale(0.015625)"/>
      <path id="DejaVuSans-39" d="M 703 97 
L 703 672 
Q 941 559 1184 500 
Q 1428 441 1663 441 
Q 2288 441 2617 861 
Q 2947 1281 2994 2138 
Q 2813 1869 2534 1725 
Q 2256 1581 1919 1581 
Q 1219 1581 811 2004 
Q 403 2428 403 3163 
Q 403 3881 828 4315 
Q 1253 4750 1959 4750 
Q 2769 4750 3195 4129 
Q 3622 3509 3622 2328 
Q 3622 1225 3098 567 
Q 2575 -91 1691 -91 
Q 1453 -91 1209 -44 
Q 966 3 703 97 
z
M 1959 2075 
Q 2384 2075 2632 2365 
Q 2881 2656 2881 3163 
Q 2881 3666 2632 3958 
Q 2384 4250 1959 4250 
Q 1534 4250 1286 3958 
Q 1038 3666 1038 3163 
Q 1038 2656 1286 2365 
Q 1534 2075 1959 2075 
z
" transform="scale(0.015625)"/>
     </defs>
     <use xlink:href="#DejaVuSans-75"/>
     <use xlink:href="#DejaVuSans-66" x="63.378906"/>
     <use xlink:href="#DejaVuSans-32" x="98.583984"/>
     <use xlink:href="#DejaVuSans-30" x="162.207031"/>
     <use xlink:href="#DejaVuSans-2d" x="225.830078"/>
     <use xlink:href="#DejaVuSans-39" x="261.914062"/>
     <use xlink:href="#DejaVuSans-31" x="325.537109"/>
    </g>
   </g>
   <g id="text_16">
    <!-- uf50-218 -->
    <g transform="translate(171.348028 244.150028) scale(0.08 -0.08)">
     <use xlink:href="#DejaVuSans-75"/>
     <use xlink:href="#DejaVuSans-66" x="63.378906"/>
     <use xlink:href="#DejaVuSans-35" x="98.583984"/>
     <use xlink:href="#DejaVuSans-30" x="162.207031"/>
     <use xlink:href="#DejaVuSans-2d" x="225.830078"/>
     <use xlink:href="#DejaVuSans-32" x="261.914062"/>
     <use xlink:href="#DejaVuSans-31" x="325.537109"/>
     <use xlink:href="#DejaVuSans-38" x="389.160156"/>
    </g>
   </g>
   <g id="text_17">
    <!-- uf75-325 -->
    <g transform="translate(214.279785 218.642723) scale(0.08 -0.08)">
     <defs>
      <path id="DejaVuSans-37" d="M 525 4666 
L 3525 4666 
L 3525 4397 
L 1831 0 
L 1172 0 
L 2766 4134 
L 525 4134 
L 525 4666 
z
" transform="scale(0.015625)"/>
      <path id="DejaVuSans-33" d="M 2597 2516 
Q 3050 2419 3304 2112 
Q 3559 1806 3559 1356 
Q 3559 666 3084 287 
Q 2609 -91 1734 -91 
Q 1441 -91 1130 -33 
Q 819 25 488 141 
L 488 750 
Q 750 597 1062 519 
Q 1375 441 1716 441 
Q 2309 441 2620 675 
Q 2931 909 2931 1356 
Q 2931 1769 2642 2001 
Q 2353 2234 1838 2234 
L 1294 2234 
L 1294 2753 
L 1863 2753 
Q 2328 2753 2575 2939 
Q 2822 3125 2822 3475 
Q 2822 3834 2567 4026 
Q 2313 4219 1838 4219 
Q 1578 4219 1281 4162 
Q 984 4106 628 3988 
L 628 4550 
Q 988 4650 1302 4700 
Q 1616 4750 1894 4750 
Q 2613 4750 3031 4423 
Q 3450 4097 3450 3541 
Q 3450 3153 3228 2886 
Q 3006 2619 2597 2516 
z
" transform="scale(0.015625)"/>
     </defs>
     <use xlink:href="#DejaVuSans-75"/>
     <use xlink:href="#DejaVuSans-66" x="63.378906"/>
     <use xlink:href="#DejaVuSans-37" x="98.583984"/>
     <use xlink:href="#DejaVuSans-35" x="162.207031"/>
     <use xlink:href="#DejaVuSans-2d" x="225.830078"/>
     <use xlink:href="#DejaVuSans-33" x="261.914062"/>
     <use xlink:href="#DejaVuSans-32" x="325.537109"/>
     <use xlink:href="#DejaVuSans-35" x="389.160156"/>
    </g>
   </g>
   <g id="text_18">
    <!-- uf100-430 -->
    <g transform="translate(257.211542 193.61219) scale(0.08 -0.08)">
     <use xlink:href="#DejaVuSans-75"/>
     <use xlink:href="#DejaVuSans-66" x="63.378906"/>
     <use xlink:href="#DejaVuSans-31" x="98.583984"/>
     <use xlink:href="#DejaVuSans-30" x="162.207031"/>
     <use xlink:href="#DejaVuSans-30" x="225.830078"/>
     <use xlink:href="#DejaVuSans-2d" x="289.453125"/>
     <use xlink:href="#DejaVuSans-34" x="325.537109"/>
     <use xlink:href="#DejaVuSans-33" x="389.160156"/>
     <use xlink:href="#DejaVuSans-30" x="452.783203"/>
    </g>
   </g>
   <g id="text_19">
    <!-- uf125-538 -->
    <g transform="translate(300.143299 167.866499) scale(0.08 -0.08)">
     <use xlink:href="#DejaVuSans-75"/>
     <use xlink:href="#DejaVuSans-66" x="63.378906"/>
     <use xlink:href="#DejaVuSans-31" x="98.583984"/>
     <use xlink:href="#DejaVuSans-32" x="162.207031"/>
     <use xlink:href="#DejaVuSans-35" x="225.830078"/>
     <use xlink:href="#DejaVuSans-2d" x="289.453125"/>
     <use xlink:href="#DejaVuSans-35" x="325.537109"/>
     <use xlink:href="#DejaVuSans-33" x="389.160156"/>
     <use xlink:href="#DejaVuSans-38" x="452.783203"/>
    </g>
   </g>
   <g id="text_20">
    <!-- uf150-645 -->
    <g transform="translate(343.075056 142.359194) scale(0.08 -0.08)">
     <use xlink:href="#DejaVuSans-75"/>
     <use xlink:href="#DejaVuSans-66" x="63.378906"/>
     <use xlink:href="#DejaVuSans-31" x="98.583984"/>
     <use xlink:href="#DejaVuSans-35" x="162.207031"/>
     <use xlink:href="#DejaVuSans-30" x="225.830078"/>
     <use xlink:href="#DejaVuSans-2d" x="289.453125"/>
     <use xlink:href="#DejaVuSans-36" x="325.537109"/>
     <use xlink:href="#DejaVuSans-34" x="389.160156"/>
     <use xlink:href="#DejaVuSans-35" x="452.783203"/>
    </g>
   </g>
   <g id="text_21">
    <!-- uf175-753 -->
    <g transform="translate(386.006813 116.613503) scale(0.08 -0.08)">
     <use xlink:href="#DejaVuSans-75"/>
     <use xlink:href="#DejaVuSans-66" x="63.378906"/>
     <use xlink:href="#DejaVuSans-31" x="98.583984"/>
     <use xlink:href="#DejaVuSans-37" x="162.207031"/>
     <use xlink:href="#DejaVuSans-35" x="225.830078"/>
     <use xlink:href="#DejaVuSans-2d" x="289.453125"/>
     <use xlink:href="#DejaVuSans-37" x="325.537109"/>
     <use xlink:href="#DejaVuSans-35" x="389.160156"/>
     <use xlink:href="#DejaVuSans-33" x="452.783203"/>
    </g>
   </g>
   <g id="text_22">
    <!-- uf200-860 -->
    <g transform="translate(428.93857 91.106198) scale(0.08 -0.08)">
     <use xlink:href="#DejaVuSans-75"/>
     <use xlink:href="#DejaVuSans-66" x="63.378906"/>
     <use xlink:href="#DejaVuSans-32" x="98.583984"/>
     <use xlink:href="#DejaVuSans-30" x="162.207031"/>
     <use xlink:href="#DejaVuSans-30" x="225.830078"/>
     <use xlink:href="#DejaVuSans-2d" x="289.453125"/>
     <use xlink:href="#DejaVuSans-38" x="325.537109"/>
     <use xlink:href="#DejaVuSans-36" x="389.160156"/>
     <use xlink:href="#DejaVuSans-30" x="452.783203"/>
    </g>
   </g>
   <g id="text_23">
    <!-- uf225-960 -->
    <g transform="translate(471.870327 67.267596) scale(0.08 -0.08)">
     <use xlink:href="#DejaVuSans-75"/>
     <use xlink:href="#DejaVuSans-66" x="63.378906"/>
     <use xlink:href="#DejaVuSans-32" x="98.583984"/>
     <use xlink:href="#DejaVuSans-32" x="162.207031"/>
     <use xlink:href="#DejaVuSans-35" x="225.830078"/>
     <use xlink:href="#DejaVuSans-2d" x="289.453125"/>
     <use xlink:href="#DejaVuSans-39" x="325.537109"/>
     <use xlink:href="#DejaVuSans-36" x="389.160156"/>
     <use xlink:href="#DejaVuSans-30" x="452.783203"/>
    </g>
   </g>
   <g id="text_24">
    <!-- uf250-1065 -->
    <g transform="translate(514.802084 42.237063) scale(0.08 -0.08)">
     <use xlink:href="#DejaVuSans-75"/>
     <use xlink:href="#DejaVuSans-66" x="63.378906"/>
     <use xlink:href="#DejaVuSans-32" x="98.583984"/>
     <use xlink:href="#DejaVuSans-35" x="162.207031"/>
     <use xlink:href="#DejaVuSans-30" x="225.830078"/>
     <use xlink:href="#DejaVuSans-2d" x="289.453125"/>
     <use xlink:href="#DejaVuSans-31" x="325.537109"/>
     <use xlink:href="#DejaVuSans-30" x="389.160156"/>
     <use xlink:href="#DejaVuSans-36" x="452.783203"/>
     <use xlink:href="#DejaVuSans-35" x="516.40625"/>
    </g>
   </g>
   <g id="text_25">
    <!-- SATLIB Dataset: Variables vs Clauses -->
    <g transform="translate(183.506057 20.88) scale(0.13 -0.13)">
     <defs>
      <path id="DejaVuSans-53" d="M 3425 4513 
L 3425 3897 
Q 3066 4069 2747 4153 
Q 2428 4238 2131 4238 
Q 1616 4238 1336 4038 
Q 1056 3838 1056 3469 
Q 1056 3159 1242 3001 
Q 1428 2844 1947 2747 
L 2328 2669 
Q 3034 2534 3370 2195 
Q 3706 1856 3706 1288 
Q 3706 609 3251 259 
Q 2797 -91 1919 -91 
Q 1588 -91 1214 -16 
Q 841 59 441 206 
L 441 856 
Q 825 641 1194 531 
Q 1563 422 1919 422 
Q 2459 422 2753 634 
Q 3047 847 3047 1241 
Q 3047 1584 2836 1778 
Q 2625 1972 2144 2069 
L 1759 2144 
Q 1053 2284 737 2584 
Q 422 2884 422 3419 
Q 422 4038 858 4394 
Q 1294 4750 2059 4750 
Q 2388 4750 2728 4690 
Q 3069 4631 3425 4513 
z
" transform="scale(0.015625)"/>
      <path id="DejaVuSans-41" d="M 2188 4044 
L 1331 1722 
L 3047 1722 
L 2188 4044 
z
M 1831 4666 
L 2547 4666 
L 4325 0 
L 3669 0 
L 3244 1197 
L 1141 1197 
L 716 0 
L 50 0 
L 1831 4666 
z
" transform="scale(0.015625)"/>
      <path id="DejaVuSans-54" d="M -19 4666 
L 3928 4666 
L 3928 4134 
L 2272 4134 
L 2272 0 
L 1638 0 
L 1638 4134 
L -19 4134 
L -19 4666 
z
" transform="scale(0.015625)"/>
      <path id="DejaVuSans-4c" d="M 628 4666 
L 1259 4666 
L 1259 531 
L 3531 531 
L 3531 0 
L 628 0 
L 628 4666 
z
" transform="scale(0.015625)"/>
      <path id="DejaVuSans-49" d="M 628 4666 
L 1259 4666 
L 1259 0 
L 628 0 
L 628 4666 
z
" transform="scale(0.015625)"/>
      <path id="DejaVuSans-42" d="M 1259 2228 
L 1259 519 
L 2272 519 
Q 2781 519 3026 730 
Q 3272 941 3272 1375 
Q 3272 1813 3026 2020 
Q 2781 2228 2272 2228 
L 1259 2228 
z
M 1259 4147 
L 1259 2741 
L 2194 2741 
Q 2656 2741 2882 2914 
Q 3109 3088 3109 3444 
Q 3109 3797 2882 3972 
Q 2656 4147 2194 4147 
L 1259 4147 
z
M 628 4666 
L 2241 4666 
Q 2963 4666 3353 4366 
Q 3744 4066 3744 3513 
Q 3744 3084 3544 2831 
Q 3344 2578 2956 2516 
Q 3422 2416 3680 2098 
Q 3938 1781 3938 1306 
Q 3938 681 3513 340 
Q 3088 0 2303 0 
L 628 0 
L 628 4666 
z
" transform="scale(0.015625)"/>
      <path id="DejaVuSans-20" transform="scale(0.015625)"/>
      <path id="DejaVuSans-44" d="M 1259 4147 
L 1259 519 
L 2022 519 
Q 2988 519 3436 956 
Q 3884 1394 3884 2338 
Q 3884 3275 3436 3711 
Q 2988 4147 2022 4147 
L 1259 4147 
z
M 628 4666 
L 1925 4666 
Q 3281 4666 3915 4102 
Q 4550 3538 4550 2338 
Q 4550 1131 3912 565 
Q 3275 0 1925 0 
L 628 0 
L 628 4666 
z
" transform="scale(0.015625)"/>
      <path id="DejaVuSans-74" d="M 1172 4494 
L 1172 3500 
L 2356 3500 
L 2356 3053 
L 1172 3053 
L 1172 1153 
Q 1172 725 1289 603 
Q 1406 481 1766 481 
L 2356 481 
L 2356 0 
L 1766 0 
Q 1100 0 847 248 
Q 594 497 594 1153 
L 594 3053 
L 172 3053 
L 172 3500 
L 594 3500 
L 594 4494 
L 1172 4494 
z
" transform="scale(0.015625)"/>
      <path id="DejaVuSans-3a" d="M 750 794 
L 1409 794 
L 1409 0 
L 750 0 
L 750 794 
z
M 750 3309 
L 1409 3309 
L 1409 2516 
L 750 2516 
L 750 3309 
z
" transform="scale(0.015625)"/>
      <path id="DejaVuSans-76" d="M 191 3500 
L 800 3500 
L 1894 563 
L 2988 3500 
L 3597 3500 
L 2284 0 
L 1503 0 
L 191 3500 
z
" transform="scale(0.015625)"/>
     </defs>
     <use xlink:href="#DejaVuSans-53"/>
     <use xlink:href="#DejaVuSans-41" x="65.351562"/>
     <use xlink:href="#DejaVuSans-54" x="126.009766"/>
     <use xlink:href="#DejaVuSans-4c" x="187.09375"/>
     <use xlink:href="#DejaVuSans-49" x="242.806641"/>
     <use xlink:href="#DejaVuSans-42" x="272.298828"/>
     <use xlink:href="#DejaVuSans-20" x="340.902344"/>
     <use xlink:href="#DejaVuSans-44" x="372.689453"/>
     <use xlink:href="#DejaVuSans-61" x="449.691406"/>
     <use xlink:href="#DejaVuSans-74" x="510.970703"/>
     <use xlink:href="#DejaVuSans-61" x="550.179688"/>
     <use xlink:href="#DejaVuSans-73" x="611.458984"/>
     <use xlink:href="#DejaVuSans-65" x="663.558594"/>
     <use xlink:href="#DejaVuSans-74" x="725.082031"/>
     <use xlink:href="#DejaVuSans-3a" x="764.291016"/>
     <use xlink:href="#DejaVuSans-20" x="797.982422"/>
     <use xlink:href="#DejaVuSans-56" x="829.769531"/>
     <use xlink:href="#DejaVuSans-61" x="890.427734"/>
     <use xlink:href="#DejaVuSans-72" x="951.707031"/>
     <use xlink:href="#DejaVuSans-69" x="992.820312"/>
     <use xlink:href="#DejaVuSans-61" x="1020.603516"/>
     <use xlink:href="#DejaVuSans-62" x="1081.882812"/>
     <use xlink:href="#DejaVuSans-6c" x="1145.359375"/>
     <use xlink:href="#DejaVuSans-65" x="1173.142578"/>
     <use xlink:href="#DejaVuSans-73" x="1234.666016"/>
     <use xlink:href="#DejaVuSans-20" x="1286.765625"/>
     <use xlink:href="#DejaVuSans-76" x="1318.552734"/>
     <use xlink:href="#DejaVuSans-73" x="1377.732422"/>
     <use xlink:href="#DejaVuSans-20" x="1429.832031"/>
     <use xlink:href="#DejaVuSans-43" x="1461.619141"/>
     <use xlink:href="#DejaVuSans-6c" x="1531.443359"/>
     <use xlink:href="#DejaVuSans-61" x="1559.226562"/>
     <use xlink:href="#DejaVuSans-75" x="1620.505859"/>
     <use xlink:href="#DejaVuSans-73" x="1683.884766"/>
     <use xlink:href="#DejaVuSans-65" x="1735.984375"/>
     <use xlink:href="#DejaVuSans-73" x="1797.507812"/>
    </g>
   </g>
   <g id="legend_1">
    <g id="patch_7">
     <path d="M 64.46 47.290312 
L 277.511094 47.290312 
Q 279.311094 47.290312 279.311094 45.490312 
L 279.311094 33.18 
Q 279.311094 31.38 277.511094 31.38 
L 64.46 31.38 
Q 62.66 31.38 62.66 33.18 
L 62.66 45.490312 
Q 62.66 47.290312 64.46 47.290312 
z
" style="fill: #ffffff; opacity: 0.8; stroke: #cccccc; stroke-linejoin: miter"/>
    </g>
    <g id="line2d_14">
     <path d="M 66.26 38.668594 
L 75.26 38.668594 
L 84.26 38.668594 
" style="fill: none; stroke-dasharray: 5.55,2.4; stroke-dashoffset: 0; stroke: #000000; stroke-opacity: 0.3; stroke-width: 1.5"/>
    </g>
    <g id="text_26">
     <!-- Clause/Var Ratio ~ 4.3 (phase transition) -->
     <g transform="translate(91.46 41.818594) scale(0.09 -0.09)">
      <defs>
       <path id="DejaVuSans-2f" d="M 1625 4666 
L 2156 4666 
L 531 -594 
L 0 -594 
L 1625 4666 
z
" transform="scale(0.015625)"/>
       <path id="DejaVuSans-52" d="M 2841 2188 
Q 3044 2119 3236 1894 
Q 3428 1669 3622 1275 
L 4263 0 
L 3584 0 
L 2988 1197 
Q 2756 1666 2539 1819 
Q 2322 1972 1947 1972 
L 1259 1972 
L 1259 0 
L 628 0 
L 628 4666 
L 2053 4666 
Q 2853 4666 3247 4331 
Q 3641 3997 3641 3322 
Q 3641 2881 3436 2590 
Q 3231 2300 2841 2188 
z
M 1259 4147 
L 1259 2491 
L 2053 2491 
Q 2509 2491 2742 2702 
Q 2975 2913 2975 3322 
Q 2975 3731 2742 3939 
Q 2509 4147 2053 4147 
L 1259 4147 
z
" transform="scale(0.015625)"/>
       <path id="DejaVuSans-6f" d="M 1959 3097 
Q 1497 3097 1228 2736 
Q 959 2375 959 1747 
Q 959 1119 1226 758 
Q 1494 397 1959 397 
Q 2419 397 2687 759 
Q 2956 1122 2956 1747 
Q 2956 2369 2687 2733 
Q 2419 3097 1959 3097 
z
M 1959 3584 
Q 2709 3584 3137 3096 
Q 3566 2609 3566 1747 
Q 3566 888 3137 398 
Q 2709 -91 1959 -91 
Q 1206 -91 779 398 
Q 353 888 353 1747 
Q 353 2609 779 3096 
Q 1206 3584 1959 3584 
z
" transform="scale(0.015625)"/>
       <path id="DejaVuSans-7e" d="M 4684 2553 
L 4684 1997 
Q 4356 1750 4076 1644 
Q 3797 1538 3494 1538 
Q 3150 1538 2694 1722 
Q 2659 1734 2644 1741 
Q 2622 1750 2575 1766 
Q 2091 1959 1797 1959 
Q 1522 1959 1253 1839 
Q 984 1719 678 1459 
L 678 2016 
Q 1006 2263 1286 2370 
Q 1566 2478 1869 2478 
Q 2213 2478 2672 2291 
Q 2703 2278 2719 2272 
Q 2744 2263 2788 2247 
Q 3272 2053 3566 2053 
Q 3834 2053 4098 2172 
Q 4363 2291 4684 2553 
z
" transform="scale(0.015625)"/>
       <path id="DejaVuSans-2e" d="M 684 794 
L 1344 794 
L 1344 0 
L 684 0 
L 684 794 
z
" transform="scale(0.015625)"/>
       <path id="DejaVuSans-28" d="M 1984 4856 
Q 1566 4138 1362 3434 
Q 1159 2731 1159 2009 
Q 1159 1288 1364 580 
Q 1569 -128 1984 -844 
L 1484 -844 
Q 1016 -109 783 600 
Q 550 1309 550 2009 
Q 550 2706 781 3412 
Q 1013 4119 1484 4856 
L 1984 4856 
z
" transform="scale(0.015625)"/>
       <path id="DejaVuSans-70" d="M 1159 525 
L 1159 -1331 
L 581 -1331 
L 581 3500 
L 1159 3500 
L 1159 2969 
Q 1341 3281 1617 3432 
Q 1894 3584 2278 3584 
Q 2916 3584 3314 3078 
Q 3713 2572 3713 1747 
Q 3713 922 3314 415 
Q 2916 -91 2278 -91 
Q 1894 -91 1617 61 
Q 1341 213 1159 525 
z
M 3116 1747 
Q 3116 2381 2855 2742 
Q 2594 3103 2138 3103 
Q 1681 3103 1420 2742 
Q 1159 2381 1159 1747 
Q 1159 1113 1420 752 
Q 1681 391 2138 391 
Q 2594 391 2855 752 
Q 3116 1113 3116 1747 
z
" transform="scale(0.015625)"/>
       <path id="DejaVuSans-68" d="M 3513 2113 
L 3513 0 
L 2938 0 
L 2938 2094 
Q 2938 2591 2744 2837 
Q 2550 3084 2163 3084 
Q 1697 3084 1428 2787 
Q 1159 2491 1159 1978 
L 1159 0 
L 581 0 
L 581 4863 
L 1159 4863 
L 1159 2956 
Q 1366 3272 1645 3428 
Q 1925 3584 2291 3584 
Q 2894 3584 3203 3211 
Q 3513 2838 3513 2113 
z
" transform="scale(0.015625)"/>
       <path id="DejaVuSans-6e" d="M 3513 2113 
L 3513 0 
L 2938 0 
L 2938 2094 
Q 2938 2591 2744 2837 
Q 2550 3084 2163 3084 
Q 1697 3084 1428 2787 
Q 1159 2491 1159 1978 
L 1159 0 
L 581 0 
L 581 3500 
L 1159 3500 
L 1159 2956 
Q 1366 3272 1645 3428 
Q 1925 3584 2291 3584 
Q 2894 3584 3203 3211 
Q 3513 2838 3513 2113 
z
" transform="scale(0.015625)"/>
       <path id="DejaVuSans-29" d="M 513 4856 
L 1013 4856 
Q 1481 4119 1714 3412 
Q 1947 2706 1947 2009 
Q 1947 1309 1714 600 
Q 1481 -109 1013 -844 
L 513 -844 
Q 928 -128 1133 580 
Q 1338 1288 1338 2009 
Q 1338 2731 1133 3434 
Q 928 4138 513 4856 
z
" transform="scale(0.015625)"/>
      </defs>
      <use xlink:href="#DejaVuSans-43"/>
      <use xlink:href="#DejaVuSans-6c" x="69.824219"/>
      <use xlink:href="#DejaVuSans-61" x="97.607422"/>
      <use xlink:href="#DejaVuSans-75" x="158.886719"/>
      <use xlink:href="#DejaVuSans-73" x="222.265625"/>
      <use xlink:href="#DejaVuSans-65" x="274.365234"/>
      <use xlink:href="#DejaVuSans-2f" x="335.888672"/>
      <use xlink:href="#DejaVuSans-56" x="369.580078"/>
      <use xlink:href="#DejaVuSans-61" x="430.238281"/>
      <use xlink:href="#DejaVuSans-72" x="491.517578"/>
      <use xlink:href="#DejaVuSans-20" x="532.630859"/>
      <use xlink:href="#DejaVuSans-52" x="564.417969"/>
      <use xlink:href="#DejaVuSans-61" x="631.650391"/>
      <use xlink:href="#DejaVuSans-74" x="692.929688"/>
      <use xlink:href="#DejaVuSans-69" x="732.138672"/>
      <use xlink:href="#DejaVuSans-6f" x="759.921875"/>
      <use xlink:href="#DejaVuSans-20" x="821.103516"/>
      <use xlink:href="#DejaVuSans-7e" x="852.890625"/>
      <use xlink:href="#DejaVuSans-20" x="936.679688"/>
      <use xlink:href="#DejaVuSans-34" x="968.466797"/>
      <use xlink:href="#DejaVuSans-2e" x="1032.089844"/>
      <use xlink:href="#DejaVuSans-33" x="1063.876953"/>
      <use xlink:href="#DejaVuSans-20" x="1127.5"/>
      <use xlink:href="#DejaVuSans-28" x="1159.287109"/>
      <use xlink:href="#DejaVuSans-70" x="1198.300781"/>
      <use xlink:href="#DejaVuSans-68" x="1261.777344"/>
      <use xlink:href="#DejaVuSans-61" x="1325.15625"/>
      <use xlink:href="#DejaVuSans-73" x="1386.435547"/>
      <use xlink:href="#DejaVuSans-65" x="1438.535156"/>
      <use xlink:href="#DejaVuSans-20" x="1500.058594"/>
      <use xlink:href="#DejaVuSans-74" x="1531.845703"/>
      <use xlink:href="#DejaVuSans-72" x="1571.054688"/>
      <use xlink:href="#DejaVuSans-61" x="1612.167969"/>
      <use xlink:href="#DejaVuSans-6e" x="1673.447266"/>
      <use xlink:href="#DejaVuSans-73" x="1736.826172"/>
      <use xlink:href="#DejaVuSans-69" x="1788.925781"/>
      <use xlink:href="#DejaVuSans-74" x="1816.708984"/>
      <use xlink:href="#DejaVuSans-69" x="1855.917969"/>
      <use xlink:href="#DejaVuSans-6f" x="1883.701172"/>
      <use xlink:href="#DejaVuSans-6e" x="1944.882812"/>
      <use xlink:href="#DejaVuSans-29" x="2008.261719"/>
     </g>
    </g>
   </g>
  </g>
 </g>
 <defs>
  <clipPath id="pa4cd7154a6">
   <rect x="58.16" y="26.88" width="491.139301" height="290.44"/>
  </clipPath>
 </defs>
</svg>
