<?xml version="1.0" encoding="utf-8" standalone="no"?>
<!DOCTYPE svg PUBLIC "-//W3C//DTD SVG 1.1//EN"
  "http://www.w3.org/Graphics/SVG/1.1/DTD/svg11.dtd">
<svg xmlns:xlink="http://www.w3.org/1999/xlink" width="864pt" height="360pt" viewBox="0 0 864 360" xmlns="http://www.w3.org/2000/svg" version="1.1">
 <metadata>
  <rdf:RDF xmlns:dc="http://purl.org/dc/elements/1.1/" xmlns:cc="http://creativecommons.org/ns#" xmlns:rdf="http://www.w3.org/1999/02/22-rdf-syntax-ns#">
   <cc:Work>
    <dc:type rdf:resource="http://purl.org/dc/dcmitype/StillImage"/>
    <dc:date>2026-05-10T22:07:42.612688</dc:date>
    <dc:format>image/svg+xml</dc:format>
    <dc:creator>
     <cc:Agent>
      <dc:title>Matplotlib v3.8.0, https://matplotlib.org/</dc:title>
     </cc:Agent>
    </dc:creator>
   </cc:Work>
  </rdf:RDF>
 </metadata>
 <defs>
  <style type="text/css">*{stroke-linejoin: round; stroke-linecap: butt}</style>
 </defs>
 <g id="figure_1">
  <g id="patch_1">
   <path d="M 0 360 
L 864 360 
L 864 0 
L 0 0 
z
" style="fill: #ffffff"/>
  </g>
  <g id="axes_1">
   <g id="patch_2">
    <path d="M 47.81 290.270078 
L 853.2 290.270078 
L 853.2 25.44 
L 47.81 25.44 
z
" style="fill: #ffffff"/>
   </g>
   <g id="patch_3">
    <path d="M 84.418636 290.270078 
L 115.574923 290.270078 
L 115.574923 223.733745 
L 84.418636 223.733745 
z
" clip-path="url(#pd4284ddd4e)" style="fill: #f44336; stroke: #ffffff; stroke-linejoin: miter"/>
   </g>
   <g id="patch_4">
    <path d="M 123.363994 290.270078 
L 154.52028 290.270078 
L 154.52028 68.998088 
L 123.363994 68.998088 
z
" clip-path="url(#pd4284ddd4e)" style="fill: #4caf50; stroke: #ffffff; stroke-linejoin: miter"/>
   </g>
   <g id="patch_5">
    <path d="M 162.309352 290.270078 
L 193.465638 290.270078 
L 193.465638 169.576265 
L 162.309352 169.576265 
z
" clip-path="url(#pd4284ddd4e)" style="fill: #f44336; stroke: #ffffff; stroke-linejoin: miter"/>
   </g>
   <g id="patch_6">
    <path d="M 201.25471 290.270078 
L 232.410996 290.270078 
L 232.410996 185.049831 
L 201.25471 185.049831 
z
" clip-path="url(#pd4284ddd4e)" style="fill: #f44336; stroke: #ffffff; stroke-linejoin: miter"/>
   </g>
   <g id="patch_7">
    <path d="M 240.200068 290.270078 
L 271.356354 290.270078 
L 271.356354 228.375815 
L 240.200068 228.375815 
z
" clip-path="url(#pd4284ddd4e)" style="fill: #f44336; stroke: #ffffff; stroke-linejoin: miter"/>
   </g>
   <g id="patch_8">
    <path d="M 279.145426 290.270078 
L 310.301712 290.270078 
L 310.301712 250.038807 
L 279.145426 250.038807 
z
" clip-path="url(#pd4284ddd4e)" style="fill: #f44336; stroke: #ffffff; stroke-linejoin: miter"/>
   </g>
   <g id="patch_9">
    <path d="M 318.090783 290.270078 
L 349.24707 290.270078 
L 349.24707 256.228233 
L 318.090783 256.228233 
z
" clip-path="url(#pd4284ddd4e)" style="fill: #f44336; stroke: #ffffff; stroke-linejoin: miter"/>
   </g>
   <g id="patch_10">
    <path d="M 357.036141 290.270078 
L 388.192427 290.270078 
L 388.192427 260.870303 
L 357.036141 260.870303 
z
" clip-path="url(#pd4284ddd4e)" style="fill: #f44336; stroke: #ffffff; stroke-linejoin: miter"/>
   </g>
   <g id="patch_11">
    <path d="M 395.981499 290.270078 
L 427.137785 290.270078 
L 427.137785 206.712823 
L 395.981499 206.712823 
z
" clip-path="url(#pd4284ddd4e)" style="fill: #f44336; stroke: #ffffff; stroke-linejoin: miter"/>
   </g>
   <g id="patch_12">
    <path d="M 434.926857 290.270078 
L 466.083143 290.270078 
L 466.083143 287.175365 
L 434.926857 287.175365 
z
" clip-path="url(#pd4284ddd4e)" style="fill: #f44336; stroke: #ffffff; stroke-linejoin: miter"/>
   </g>
   <g id="patch_13">
    <path d="M 473.872215 290.270078 
L 505.028501 290.270078 
L 505.028501 287.175365 
L 473.872215 287.175365 
z
" clip-path="url(#pd4284ddd4e)" style="fill: #f44336; stroke: #ffffff; stroke-linejoin: miter"/>
   </g>
   <g id="patch_14">
    <path d="M 512.817573 290.270078 
L 543.973859 290.270078 
L 543.973859 288.722721 
L 512.817573 288.722721 
z
" clip-path="url(#pd4284ddd4e)" style="fill: #f44336; stroke: #ffffff; stroke-linejoin: miter"/>
   </g>
   <g id="patch_15">
    <path d="M 551.76293 290.270078 
L 582.919217 290.270078 
L 582.919217 288.722721 
L 551.76293 288.722721 
z
" clip-path="url(#pd4284ddd4e)" style="fill: #f44336; stroke: #ffffff; stroke-linejoin: miter"/>
   </g>
   <g id="patch_16">
    <path d="M 590.708288 290.270078 
L 621.864574 290.270078 
L 621.864574 288.722721 
L 590.708288 288.722721 
z
" clip-path="url(#pd4284ddd4e)" style="fill: #f44336; stroke: #ffffff; stroke-linejoin: miter"/>
   </g>
   <g id="patch_17">
    <path d="M 629.653646 290.270078 
L 660.809932 290.270078 
L 660.809932 288.722721 
L 629.653646 288.722721 
z
" clip-path="url(#pd4284ddd4e)" style="fill: #f44336; stroke: #ffffff; stroke-linejoin: miter"/>
   </g>
   <g id="patch_18">
    <path d="M 668.599004 290.270078 
L 699.75529 290.270078 
L 699.75529 38.050956 
L 668.599004 38.050956 
z
" clip-path="url(#pd4284ddd4e)" style="fill: #4caf50; stroke: #ffffff; stroke-linejoin: miter"/>
   </g>
   <g id="patch_19">
    <path d="M 707.544362 290.270078 
L 738.700648 290.270078 
L 738.700648 214.449606 
L 707.544362 214.449606 
z
" clip-path="url(#pd4284ddd4e)" style="fill: #f44336; stroke: #ffffff; stroke-linejoin: miter"/>
   </g>
   <g id="patch_20">
    <path d="M 746.48972 290.270078 
L 777.646006 290.270078 
L 777.646006 140.17649 
L 746.48972 140.17649 
z
" clip-path="url(#pd4284ddd4e)" style="fill: #f44336; stroke: #ffffff; stroke-linejoin: miter"/>
   </g>
   <g id="patch_21">
    <path d="M 785.435077 290.270078 
L 816.591364 290.270078 
L 816.591364 163.386839 
L 785.435077 163.386839 
z
" clip-path="url(#pd4284ddd4e)" style="fill: #f44336; stroke: #ffffff; stroke-linejoin: miter"/>
   </g>
   <g id="matplotlib.axis_1">
    <g id="xtick_1">
     <g id="line2d_1">
      <defs>
       <path id="m3334a6d7d9" d="M 0 0 
L 0 3.5 
" style="stroke: #000000; stroke-width: 0.8"/>
      </defs>
      <g>
       <use xlink:href="#m3334a6d7d9" x="99.996779" y="290.270078" style="stroke: #000000; stroke-width: 0.8"/>
      </g>
     </g>
     <g id="text_1">
      <!-- uf100-430-SAT -->
      <g transform="translate(62.360137 337.638362) rotate(-45) scale(0.07 -0.07)">
       <defs>
        <path id="DejaVuSans-75" d="M 544 1381 
L 544 3500 
L 1119 3500 
L 1119 1403 
Q 1119 906 1312 657 
Q 1506 409 1894 409 
Q 2359 409 2629 706 
Q 2900 1003 2900 1516 
L 2900 3500 
L 3475 3500 
L 3475 0 
L 2900 0 
L 2900 538 
Q 2691 219 2414 64 
Q 2138 -91 1772 -91 
Q 1169 -91 856 284 
Q 544 659 544 1381 
z
M 1991 3584 
L 1991 3584 
z
" transform="scale(0.015625)"/>
        <path id="DejaVuSans-66" d="M 2375 4863 
L 2375 4384 
L 1825 4384 
Q 1516 4384 1395 4259 
Q 1275 4134 1275 3809 
L 1275 3500 
L 2222 3500 
L 2222 3053 
L 1275 3053 
L 1275 0 
L 697 0 
L 697 3053 
L 147 3053 
L 147 3500 
L 697 3500 
L 697 3744 
Q 697 4328 969 4595 
Q 1241 4863 1831 4863 
L 2375 4863 
z
" transform="scale(0.015625)"/>
        <path id="DejaVuSans-31" d="M 794 531 
L 1825 531 
L 1825 4091 
L 703 3866 
L 703 4441 
L 1819 4666 
L 2450 4666 
L 2450 531 
L 3481 531 
L 3481 0 
L 794 0 
L 794 531 
z
" transform="scale(0.015625)"/>
        <path id="DejaVuSans-30" d="M 2034 4250 
Q 1547 4250 1301 3770 
Q 1056 3291 1056 2328 
Q 1056 1369 1301 889 
Q 1547 409 2034 409 
Q 2525 409 2770 889 
Q 3016 1369 3016 2328 
Q 3016 3291 2770 3770 
Q 2525 4250 2034 4250 
z
M 2034 4750 
Q 2819 4750 3233 4129 
Q 3647 3509 3647 2328 
Q 3647 1150 3233 529 
Q 2819 -91 2034 -91 
Q 1250 -91 836 529 
Q 422 1150 422 2328 
Q 422 3509 836 4129 
Q 1250 4750 2034 4750 
z
" transform="scale(0.015625)"/>
        <path id="DejaVuSans-2d" d="M 313 2009 
L 1997 2009 
L 1997 1497 
L 313 1497 
L 313 2009 
z
" transform="scale(0.015625)"/>
        <path id="DejaVuSans-34" d="M 2419 4116 
L 825 1625 
L 2419 1625 
L 2419 4116 
z
M 2253 4666 
L 3047 4666 
L 3047 1625 
L 3713 1625 
L 3713 1100 
L 3047 1100 
L 3047 0 
L 2419 0 
L 2419 1100 
L 313 1100 
L 313 1709 
L 2253 4666 
z
" transform="scale(0.015625)"/>
        <path id="DejaVuSans-33" d="M 2597 2516 
Q 3050 2419 3304 2112 
Q 3559 1806 3559 1356 
Q 3559 666 3084 287 
Q 2609 -91 1734 -91 
Q 1441 -91 1130 -33 
Q 819 25 488 141 
L 488 750 
Q 750 597 1062 519 
Q 1375 441 1716 441 
Q 2309 441 2620 675 
Q 2931 909 2931 1356 
Q 2931 1769 2642 2001 
Q 2353 2234 1838 2234 
L 1294 2234 
L 1294 2753 
L 1863 2753 
Q 2328 2753 2575 2939 
Q 2822 3125 2822 3475 
Q 2822 3834 2567 4026 
Q 2313 4219 1838 4219 
Q 1578 4219 1281 4162 
Q 984 4106 628 3988 
L 628 4550 
Q 988 4650 1302 4700 
Q 1616 4750 1894 4750 
Q 2613 4750 3031 4423 
Q 3450 4097 3450 3541 
Q 3450 3153 3228 2886 
Q 3006 2619 2597 2516 
z
" transform="scale(0.015625)"/>
        <path id="DejaVuSans-53" d="M 3425 4513 
L 3425 3897 
Q 3066 4069 2747 4153 
Q 2428 4238 2131 4238 
Q 1616 4238 1336 4038 
Q 1056 3838 1056 3469 
Q 1056 3159 1242 3001 
Q 1428 2844 1947 2747 
L 2328 2669 
Q 3034 2534 3370 2195 
Q 3706 1856 3706 1288 
Q 3706 609 3251 259 
Q 2797 -91 1919 -91 
Q 1588 -91 1214 -16 
Q 841 59 441 206 
L 441 856 
Q 825 641 1194 531 
Q 1563 422 1919 422 
Q 2459 422 2753 634 
Q 3047 847 3047 1241 
Q 3047 1584 2836 1778 
Q 2625 1972 2144 2069 
L 1759 2144 
Q 1053 2284 737 2584 
Q 422 2884 422 3419 
Q 422 4038 858 4394 
Q 1294 4750 2059 4750 
Q 2388 4750 2728 4690 
Q 3069 4631 3425 4513 
z
" transform="scale(0.015625)"/>
        <path id="DejaVuSans-41" d="M 2188 4044 
L 1331 1722 
L 3047 1722 
L 2188 4044 
z
M 1831 4666 
L 2547 4666 
L 4325 0 
L 3669 0 
L 3244 1197 
L 1141 1197 
L 716 0 
L 50 0 
L 1831 4666 
z
" transform="scale(0.015625)"/>
        <path id="DejaVuSans-54" d="M -19 4666 
L 3928 4666 
L 3928 4134 
L 2272 4134 
L 2272 0 
L 1638 0 
L 1638 4134 
L -19 4134 
L -19 4666 
z
" transform="scale(0.015625)"/>
       </defs>
       <use xlink:href="#DejaVuSans-75"/>
       <use xlink:href="#DejaVuSans-66" x="63.378906"/>
       <use xlink:href="#DejaVuSans-31" x="98.583984"/>
       <use xlink:href="#DejaVuSans-30" x="162.207031"/>
       <use xlink:href="#DejaVuSans-30" x="225.830078"/>
       <use xlink:href="#DejaVuSans-2d" x="289.453125"/>
       <use xlink:href="#DejaVuSans-34" x="325.537109"/>
       <use xlink:href="#DejaVuSans-33" x="389.160156"/>
       <use xlink:href="#DejaVuSans-30" x="452.783203"/>
       <use xlink:href="#DejaVuSans-2d" x="516.40625"/>
       <use xlink:href="#DejaVuSans-53" x="552.490234"/>
       <use xlink:href="#DejaVuSans-41" x="617.841797"/>
       <use xlink:href="#DejaVuSans-54" x="678.5"/>
      </g>
     </g>
    </g>
    <g id="xtick_2">
     <g id="line2d_2">
      <g>
       <use xlink:href="#m3334a6d7d9" x="138.942137" y="290.270078" style="stroke: #000000; stroke-width: 0.8"/>
      </g>
     </g>
     <g id="text_2">
      <!-- uf100-430-UNSAT -->
      <g transform="translate(93.979869 344.963988) rotate(-45) scale(0.07 -0.07)">
       <defs>
        <path id="DejaVuSans-55" d="M 556 4666 
L 1191 4666 
L 1191 1831 
Q 1191 1081 1462 751 
Q 1734 422 2344 422 
Q 2950 422 3222 751 
Q 3494 1081 3494 1831 
L 3494 4666 
L 4128 4666 
L 4128 1753 
Q 4128 841 3676 375 
Q 3225 -91 2344 -91 
Q 1459 -91 1007 375 
Q 556 841 556 1753 
L 556 4666 
z
" transform="scale(0.015625)"/>
        <path id="DejaVuSans-4e" d="M 628 4666 
L 1478 4666 
L 3547 763 
L 3547 4666 
L 4159 4666 
L 4159 0 
L 3309 0 
L 1241 3903 
L 1241 0 
L 628 0 
L 628 4666 
z
" transform="scale(0.015625)"/>
       </defs>
       <use xlink:href="#DejaVuSans-75"/>
       <use xlink:href="#DejaVuSans-66" x="63.378906"/>
       <use xlink:href="#DejaVuSans-31" x="98.583984"/>
       <use xlink:href="#DejaVuSans-30" x="162.207031"/>
       <use xlink:href="#DejaVuSans-30" x="225.830078"/>
       <use xlink:href="#DejaVuSans-2d" x="289.453125"/>
       <use xlink:href="#DejaVuSans-34" x="325.537109"/>
       <use xlink:href="#DejaVuSans-33" x="389.160156"/>
       <use xlink:href="#DejaVuSans-30" x="452.783203"/>
       <use xlink:href="#DejaVuSans-2d" x="516.40625"/>
       <use xlink:href="#DejaVuSans-55" x="552.490234"/>
       <use xlink:href="#DejaVuSans-4e" x="625.683594"/>
       <use xlink:href="#DejaVuSans-53" x="700.488281"/>
       <use xlink:href="#DejaVuSans-41" x="765.839844"/>
       <use xlink:href="#DejaVuSans-54" x="826.498047"/>
      </g>
     </g>
    </g>
    <g id="xtick_3">
     <g id="line2d_3">
      <g>
       <use xlink:href="#m3334a6d7d9" x="177.887495" y="290.270078" style="stroke: #000000; stroke-width: 0.8"/>
      </g>
     </g>
     <g id="text_3">
      <!-- uf125-538-SAT -->
      <g transform="translate(140.250853 337.638362) rotate(-45) scale(0.07 -0.07)">
       <defs>
        <path id="DejaVuSans-32" d="M 1228 531 
L 3431 531 
L 3431 0 
L 469 0 
L 469 531 
Q 828 903 1448 1529 
Q 2069 2156 2228 2338 
Q 2531 2678 2651 2914 
Q 2772 3150 2772 3378 
Q 2772 3750 2511 3984 
Q 2250 4219 1831 4219 
Q 1534 4219 1204 4116 
Q 875 4013 500 3803 
L 500 4441 
Q 881 4594 1212 4672 
Q 1544 4750 1819 4750 
Q 2544 4750 2975 4387 
Q 3406 4025 3406 3419 
Q 3406 3131 3298 2873 
Q 3191 2616 2906 2266 
Q 2828 2175 2409 1742 
Q 1991 1309 1228 531 
z
" transform="scale(0.015625)"/>
        <path id="DejaVuSans-35" d="M 691 4666 
L 3169 4666 
L 3169 4134 
L 1269 4134 
L 1269 2991 
Q 1406 3038 1543 3061 
Q 1681 3084 1819 3084 
Q 2600 3084 3056 2656 
Q 3513 2228 3513 1497 
Q 3513 744 3044 326 
Q 2575 -91 1722 -91 
Q 1428 -91 1123 -41 
Q 819 9 494 109 
L 494 744 
Q 775 591 1075 516 
Q 1375 441 1709 441 
Q 2250 441 2565 725 
Q 2881 1009 2881 1497 
Q 2881 1984 2565 2268 
Q 2250 2553 1709 2553 
Q 1456 2553 1204 2497 
Q 953 2441 691 2322 
L 691 4666 
z
" transform="scale(0.015625)"/>
        <path id="DejaVuSans-38" d="M 2034 2216 
Q 1584 2216 1326 1975 
Q 1069 1734 1069 1313 
Q 1069 891 1326 650 
Q 1584 409 2034 409 
Q 2484 409 2743 651 
Q 3003 894 3003 1313 
Q 3003 1734 2745 1975 
Q 2488 2216 2034 2216 
z
M 1403 2484 
Q 997 2584 770 2862 
Q 544 3141 544 3541 
Q 544 4100 942 4425 
Q 1341 4750 2034 4750 
Q 2731 4750 3128 4425 
Q 3525 4100 3525 3541 
Q 3525 3141 3298 2862 
Q 3072 2584 2669 2484 
Q 3125 2378 3379 2068 
Q 3634 1759 3634 1313 
Q 3634 634 3220 271 
Q 2806 -91 2034 -91 
Q 1263 -91 848 271 
Q 434 634 434 1313 
Q 434 1759 690 2068 
Q 947 2378 1403 2484 
z
M 1172 3481 
Q 1172 3119 1398 2916 
Q 1625 2713 2034 2713 
Q 2441 2713 2670 2916 
Q 2900 3119 2900 3481 
Q 2900 3844 2670 4047 
Q 2441 4250 2034 4250 
Q 1625 4250 1398 4047 
Q 1172 3844 1172 3481 
z
" transform="scale(0.015625)"/>
       </defs>
       <use xlink:href="#DejaVuSans-75"/>
       <use xlink:href="#DejaVuSans-66" x="63.378906"/>
       <use xlink:href="#DejaVuSans-31" x="98.583984"/>
       <use xlink:href="#DejaVuSans-32" x="162.207031"/>
       <use xlink:href="#DejaVuSans-35" x="225.830078"/>
       <use xlink:href="#DejaVuSans-2d" x="289.453125"/>
       <use xlink:href="#DejaVuSans-35" x="325.537109"/>
       <use xlink:href="#DejaVuSans-33" x="389.160156"/>
       <use xlink:href="#DejaVuSans-38" x="452.783203"/>
       <use xlink:href="#DejaVuSans-2d" x="516.40625"/>
       <use xlink:href="#DejaVuSans-53" x="552.490234"/>
       <use xlink:href="#DejaVuSans-41" x="617.841797"/>
       <use xlink:href="#DejaVuSans-54" x="678.5"/>
      </g>
     </g>
    </g>
    <g id="xtick_4">
     <g id="line2d_4">
      <g>
       <use xlink:href="#m3334a6d7d9" x="216.832853" y="290.270078" style="stroke: #000000; stroke-width: 0.8"/>
      </g>
     </g>
     <g id="text_4">
      <!-- uf125-538-UNSAT -->
      <g transform="translate(171.870584 344.963988) rotate(-45) scale(0.07 -0.07)">
       <use xlink:href="#DejaVuSans-75"/>
       <use xlink:href="#DejaVuSans-66" x="63.378906"/>
       <use xlink:href="#DejaVuSans-31" x="98.583984"/>
       <use xlink:href="#DejaVuSans-32" x="162.207031"/>
       <use xlink:href="#DejaVuSans-35" x="225.830078"/>
       <use xlink:href="#DejaVuSans-2d" x="289.453125"/>
       <use xlink:href="#DejaVuSans-35" x="325.537109"/>
       <use xlink:href="#DejaVuSans-33" x="389.160156"/>
       <use xlink:href="#DejaVuSans-38" x="452.783203"/>
       <use xlink:href="#DejaVuSans-2d" x="516.40625"/>
       <use xlink:href="#DejaVuSans-55" x="552.490234"/>
       <use xlink:href="#DejaVuSans-4e" x="625.683594"/>
       <use xlink:href="#DejaVuSans-53" x="700.488281"/>
       <use xlink:href="#DejaVuSans-41" x="765.839844"/>
       <use xlink:href="#DejaVuSans-54" x="826.498047"/>
      </g>
     </g>
    </g>
    <g id="xtick_5">
     <g id="line2d_5">
      <g>
       <use xlink:href="#m3334a6d7d9" x="255.778211" y="290.270078" style="stroke: #000000; stroke-width: 0.8"/>
      </g>
     </g>
     <g id="text_5">
      <!-- uf150-645-SAT -->
      <g transform="translate(218.141569 337.638362) rotate(-45) scale(0.07 -0.07)">
       <defs>
        <path id="DejaVuSans-36" d="M 2113 2584 
Q 1688 2584 1439 2293 
Q 1191 2003 1191 1497 
Q 1191 994 1439 701 
Q 1688 409 2113 409 
Q 2538 409 2786 701 
Q 3034 994 3034 1497 
Q 3034 2003 2786 2293 
Q 2538 2584 2113 2584 
z
M 3366 4563 
L 3366 3988 
Q 3128 4100 2886 4159 
Q 2644 4219 2406 4219 
Q 1781 4219 1451 3797 
Q 1122 3375 1075 2522 
Q 1259 2794 1537 2939 
Q 1816 3084 2150 3084 
Q 2853 3084 3261 2657 
Q 3669 2231 3669 1497 
Q 3669 778 3244 343 
Q 2819 -91 2113 -91 
Q 1303 -91 875 529 
Q 447 1150 447 2328 
Q 447 3434 972 4092 
Q 1497 4750 2381 4750 
Q 2619 4750 2861 4703 
Q 3103 4656 3366 4563 
z
" transform="scale(0.015625)"/>
       </defs>
       <use xlink:href="#DejaVuSans-75"/>
       <use xlink:href="#DejaVuSans-66" x="63.378906"/>
       <use xlink:href="#DejaVuSans-31" x="98.583984"/>
       <use xlink:href="#DejaVuSans-35" x="162.207031"/>
       <use xlink:href="#DejaVuSans-30" x="225.830078"/>
       <use xlink:href="#DejaVuSans-2d" x="289.453125"/>
       <use xlink:href="#DejaVuSans-36" x="325.537109"/>
       <use xlink:href="#DejaVuSans-34" x="389.160156"/>
       <use xlink:href="#DejaVuSans-35" x="452.783203"/>
       <use xlink:href="#DejaVuSans-2d" x="516.40625"/>
       <use xlink:href="#DejaVuSans-53" x="552.490234"/>
       <use xlink:href="#DejaVuSans-41" x="617.841797"/>
       <use xlink:href="#DejaVuSans-54" x="678.5"/>
      </g>
     </g>
    </g>
    <g id="xtick_6">
     <g id="line2d_6">
      <g>
       <use xlink:href="#m3334a6d7d9" x="294.723569" y="290.270078" style="stroke: #000000; stroke-width: 0.8"/>
      </g>
     </g>
     <g id="text_6">
      <!-- uf150-645-UNSAT -->
      <g transform="translate(249.7613 344.963988) rotate(-45) scale(0.07 -0.07)">
       <use xlink:href="#DejaVuSans-75"/>
       <use xlink:href="#DejaVuSans-66" x="63.378906"/>
       <use xlink:href="#DejaVuSans-31" x="98.583984"/>
       <use xlink:href="#DejaVuSans-35" x="162.207031"/>
       <use xlink:href="#DejaVuSans-30" x="225.830078"/>
       <use xlink:href="#DejaVuSans-2d" x="289.453125"/>
       <use xlink:href="#DejaVuSans-36" x="325.537109"/>
       <use xlink:href="#DejaVuSans-34" x="389.160156"/>
       <use xlink:href="#DejaVuSans-35" x="452.783203"/>
       <use xlink:href="#DejaVuSans-2d" x="516.40625"/>
       <use xlink:href="#DejaVuSans-55" x="552.490234"/>
       <use xlink:href="#DejaVuSans-4e" x="625.683594"/>
       <use xlink:href="#DejaVuSans-53" x="700.488281"/>
       <use xlink:href="#DejaVuSans-41" x="765.839844"/>
       <use xlink:href="#DejaVuSans-54" x="826.498047"/>
      </g>
     </g>
    </g>
    <g id="xtick_7">
     <g id="line2d_7">
      <g>
       <use xlink:href="#m3334a6d7d9" x="333.668926" y="290.270078" style="stroke: #000000; stroke-width: 0.8"/>
      </g>
     </g>
     <g id="text_7">
      <!-- uf175-753-SAT -->
      <g transform="translate(296.032284 337.638362) rotate(-45) scale(0.07 -0.07)">
       <defs>
        <path id="DejaVuSans-37" d="M 525 4666 
L 3525 4666 
L 3525 4397 
L 1831 0 
L 1172 0 
L 2766 4134 
L 525 4134 
L 525 4666 
z
" transform="scale(0.015625)"/>
       </defs>
       <use xlink:href="#DejaVuSans-75"/>
       <use xlink:href="#DejaVuSans-66" x="63.378906"/>
       <use xlink:href="#DejaVuSans-31" x="98.583984"/>
       <use xlink:href="#DejaVuSans-37" x="162.207031"/>
       <use xlink:href="#DejaVuSans-35" x="225.830078"/>
       <use xlink:href="#DejaVuSans-2d" x="289.453125"/>
       <use xlink:href="#DejaVuSans-37" x="325.537109"/>
       <use xlink:href="#DejaVuSans-35" x="389.160156"/>
       <use xlink:href="#DejaVuSans-33" x="452.783203"/>
       <use xlink:href="#DejaVuSans-2d" x="516.40625"/>
       <use xlink:href="#DejaVuSans-53" x="552.490234"/>
       <use xlink:href="#DejaVuSans-41" x="617.841797"/>
       <use xlink:href="#DejaVuSans-54" x="678.5"/>
      </g>
     </g>
    </g>
    <g id="xtick_8">
     <g id="line2d_8">
      <g>
       <use xlink:href="#m3334a6d7d9" x="372.614284" y="290.270078" style="stroke: #000000; stroke-width: 0.8"/>
      </g>
     </g>
     <g id="text_8">
      <!-- uf175-753-UNSAT -->
      <g transform="translate(327.652016 344.963988) rotate(-45) scale(0.07 -0.07)">
       <use xlink:href="#DejaVuSans-75"/>
       <use xlink:href="#DejaVuSans-66" x="63.378906"/>
       <use xlink:href="#DejaVuSans-31" x="98.583984"/>
       <use xlink:href="#DejaVuSans-37" x="162.207031"/>
       <use xlink:href="#DejaVuSans-35" x="225.830078"/>
       <use xlink:href="#DejaVuSans-2d" x="289.453125"/>
       <use xlink:href="#DejaVuSans-37" x="325.537109"/>
       <use xlink:href="#DejaVuSans-35" x="389.160156"/>
       <use xlink:href="#DejaVuSans-33" x="452.783203"/>
       <use xlink:href="#DejaVuSans-2d" x="516.40625"/>
       <use xlink:href="#DejaVuSans-55" x="552.490234"/>
       <use xlink:href="#DejaVuSans-4e" x="625.683594"/>
       <use xlink:href="#DejaVuSans-53" x="700.488281"/>
       <use xlink:href="#DejaVuSans-41" x="765.839844"/>
       <use xlink:href="#DejaVuSans-54" x="826.498047"/>
      </g>
     </g>
    </g>
    <g id="xtick_9">
     <g id="line2d_9">
      <g>
       <use xlink:href="#m3334a6d7d9" x="411.559642" y="290.270078" style="stroke: #000000; stroke-width: 0.8"/>
      </g>
     </g>
     <g id="text_9">
      <!-- uf20-91-SAT -->
      <g transform="translate(380.221554 331.339809) rotate(-45) scale(0.07 -0.07)">
       <defs>
        <path id="DejaVuSans-39" d="M 703 97 
L 703 672 
Q 941 559 1184 500 
Q 1428 441 1663 441 
Q 2288 441 2617 861 
Q 2947 1281 2994 2138 
Q 2813 1869 2534 1725 
Q 2256 1581 1919 1581 
Q 1219 1581 811 2004 
Q 403 2428 403 3163 
Q 403 3881 828 4315 
Q 1253 4750 1959 4750 
Q 2769 4750 3195 4129 
Q 3622 3509 3622 2328 
Q 3622 1225 3098 567 
Q 2575 -91 1691 -91 
Q 1453 -91 1209 -44 
Q 966 3 703 97 
z
M 1959 2075 
Q 2384 2075 2632 2365 
Q 2881 2656 2881 3163 
Q 2881 3666 2632 3958 
Q 2384 4250 1959 4250 
Q 1534 4250 1286 3958 
Q 1038 3666 1038 3163 
Q 1038 2656 1286 2365 
Q 1534 2075 1959 2075 
z
" transform="scale(0.015625)"/>
       </defs>
       <use xlink:href="#DejaVuSans-75"/>
       <use xlink:href="#DejaVuSans-66" x="63.378906"/>
       <use xlink:href="#DejaVuSans-32" x="98.583984"/>
       <use xlink:href="#DejaVuSans-30" x="162.207031"/>
       <use xlink:href="#DejaVuSans-2d" x="225.830078"/>
       <use xlink:href="#DejaVuSans-39" x="261.914062"/>
       <use xlink:href="#DejaVuSans-31" x="325.537109"/>
       <use xlink:href="#DejaVuSans-2d" x="389.160156"/>
       <use xlink:href="#DejaVuSans-53" x="425.244141"/>
       <use xlink:href="#DejaVuSans-41" x="490.595703"/>
       <use xlink:href="#DejaVuSans-54" x="551.253906"/>
      </g>
     </g>
    </g>
    <g id="xtick_10">
     <g id="line2d_10">
      <g>
       <use xlink:href="#m3334a6d7d9" x="450.505" y="290.270078" style="stroke: #000000; stroke-width: 0.8"/>
      </g>
     </g>
     <g id="text_10">
      <!-- uf200-860-SAT -->
      <g transform="translate(412.868358 337.638362) rotate(-45) scale(0.07 -0.07)">
       <use xlink:href="#DejaVuSans-75"/>
       <use xlink:href="#DejaVuSans-66" x="63.378906"/>
       <use xlink:href="#DejaVuSans-32" x="98.583984"/>
       <use xlink:href="#DejaVuSans-30" x="162.207031"/>
       <use xlink:href="#DejaVuSans-30" x="225.830078"/>
       <use xlink:href="#DejaVuSans-2d" x="289.453125"/>
       <use xlink:href="#DejaVuSans-38" x="325.537109"/>
       <use xlink:href="#DejaVuSans-36" x="389.160156"/>
       <use xlink:href="#DejaVuSans-30" x="452.783203"/>
       <use xlink:href="#DejaVuSans-2d" x="516.40625"/>
       <use xlink:href="#DejaVuSans-53" x="552.490234"/>
       <use xlink:href="#DejaVuSans-41" x="617.841797"/>
       <use xlink:href="#DejaVuSans-54" x="678.5"/>
      </g>
     </g>
    </g>
    <g id="xtick_11">
     <g id="line2d_11">
      <g>
       <use xlink:href="#m3334a6d7d9" x="489.450358" y="290.270078" style="stroke: #000000; stroke-width: 0.8"/>
      </g>
     </g>
     <g id="text_11">
      <!-- uf200-860-UNSAT -->
      <g transform="translate(444.488089 344.963988) rotate(-45) scale(0.07 -0.07)">
       <use xlink:href="#DejaVuSans-75"/>
       <use xlink:href="#DejaVuSans-66" x="63.378906"/>
       <use xlink:href="#DejaVuSans-32" x="98.583984"/>
       <use xlink:href="#DejaVuSans-30" x="162.207031"/>
       <use xlink:href="#DejaVuSans-30" x="225.830078"/>
       <use xlink:href="#DejaVuSans-2d" x="289.453125"/>
       <use xlink:href="#DejaVuSans-38" x="325.537109"/>
       <use xlink:href="#DejaVuSans-36" x="389.160156"/>
       <use xlink:href="#DejaVuSans-30" x="452.783203"/>
       <use xlink:href="#DejaVuSans-2d" x="516.40625"/>
       <use xlink:href="#DejaVuSans-55" x="552.490234"/>
       <use xlink:href="#DejaVuSans-4e" x="625.683594"/>
       <use xlink:href="#DejaVuSans-53" x="700.488281"/>
       <use xlink:href="#DejaVuSans-41" x="765.839844"/>
       <use xlink:href="#DejaVuSans-54" x="826.498047"/>
      </g>
     </g>
    </g>
    <g id="xtick_12">
     <g id="line2d_12">
      <g>
       <use xlink:href="#m3334a6d7d9" x="528.395716" y="290.270078" style="stroke: #000000; stroke-width: 0.8"/>
      </g>
     </g>
     <g id="text_12">
      <!-- uf225-960-SAT -->
      <g transform="translate(490.759073 337.638362) rotate(-45) scale(0.07 -0.07)">
       <use xlink:href="#DejaVuSans-75"/>
       <use xlink:href="#DejaVuSans-66" x="63.378906"/>
       <use xlink:href="#DejaVuSans-32" x="98.583984"/>
       <use xlink:href="#DejaVuSans-32" x="162.207031"/>
       <use xlink:href="#DejaVuSans-35" x="225.830078"/>
       <use xlink:href="#DejaVuSans-2d" x="289.453125"/>
       <use xlink:href="#DejaVuSans-39" x="325.537109"/>
       <use xlink:href="#DejaVuSans-36" x="389.160156"/>
       <use xlink:href="#DejaVuSans-30" x="452.783203"/>
       <use xlink:href="#DejaVuSans-2d" x="516.40625"/>
       <use xlink:href="#DejaVuSans-53" x="552.490234"/>
       <use xlink:href="#DejaVuSans-41" x="617.841797"/>
       <use xlink:href="#DejaVuSans-54" x="678.5"/>
      </g>
     </g>
    </g>
    <g id="xtick_13">
     <g id="line2d_13">
      <g>
       <use xlink:href="#m3334a6d7d9" x="567.341074" y="290.270078" style="stroke: #000000; stroke-width: 0.8"/>
      </g>
     </g>
     <g id="text_13">
      <!-- uf225-960-UNSAT -->
      <g transform="translate(522.378805 344.963988) rotate(-45) scale(0.07 -0.07)">
       <use xlink:href="#DejaVuSans-75"/>
       <use xlink:href="#DejaVuSans-66" x="63.378906"/>
       <use xlink:href="#DejaVuSans-32" x="98.583984"/>
       <use xlink:href="#DejaVuSans-32" x="162.207031"/>
       <use xlink:href="#DejaVuSans-35" x="225.830078"/>
       <use xlink:href="#DejaVuSans-2d" x="289.453125"/>
       <use xlink:href="#DejaVuSans-39" x="325.537109"/>
       <use xlink:href="#DejaVuSans-36" x="389.160156"/>
       <use xlink:href="#DejaVuSans-30" x="452.783203"/>
       <use xlink:href="#DejaVuSans-2d" x="516.40625"/>
       <use xlink:href="#DejaVuSans-55" x="552.490234"/>
       <use xlink:href="#DejaVuSans-4e" x="625.683594"/>
       <use xlink:href="#DejaVuSans-53" x="700.488281"/>
       <use xlink:href="#DejaVuSans-41" x="765.839844"/>
       <use xlink:href="#DejaVuSans-54" x="826.498047"/>
      </g>
     </g>
    </g>
    <g id="xtick_14">
     <g id="line2d_14">
      <g>
       <use xlink:href="#m3334a6d7d9" x="606.286431" y="290.270078" style="stroke: #000000; stroke-width: 0.8"/>
      </g>
     </g>
     <g id="text_14">
      <!-- uf250-1065-SAT -->
      <g transform="translate(565.500512 340.787639) rotate(-45) scale(0.07 -0.07)">
       <use xlink:href="#DejaVuSans-75"/>
       <use xlink:href="#DejaVuSans-66" x="63.378906"/>
       <use xlink:href="#DejaVuSans-32" x="98.583984"/>
       <use xlink:href="#DejaVuSans-35" x="162.207031"/>
       <use xlink:href="#DejaVuSans-30" x="225.830078"/>
       <use xlink:href="#DejaVuSans-2d" x="289.453125"/>
       <use xlink:href="#DejaVuSans-31" x="325.537109"/>
       <use xlink:href="#DejaVuSans-30" x="389.160156"/>
       <use xlink:href="#DejaVuSans-36" x="452.783203"/>
       <use xlink:href="#DejaVuSans-35" x="516.40625"/>
       <use xlink:href="#DejaVuSans-2d" x="580.029297"/>
       <use xlink:href="#DejaVuSans-53" x="616.113281"/>
       <use xlink:href="#DejaVuSans-41" x="681.464844"/>
       <use xlink:href="#DejaVuSans-54" x="742.123047"/>
      </g>
     </g>
    </g>
    <g id="xtick_15">
     <g id="line2d_15">
      <g>
       <use xlink:href="#m3334a6d7d9" x="645.231789" y="290.270078" style="stroke: #000000; stroke-width: 0.8"/>
      </g>
     </g>
     <g id="text_15">
      <!-- uf250-1065-UNSAT -->
      <g transform="translate(597.120244 348.113265) rotate(-45) scale(0.07 -0.07)">
       <use xlink:href="#DejaVuSans-75"/>
       <use xlink:href="#DejaVuSans-66" x="63.378906"/>
       <use xlink:href="#DejaVuSans-32" x="98.583984"/>
       <use xlink:href="#DejaVuSans-35" x="162.207031"/>
       <use xlink:href="#DejaVuSans-30" x="225.830078"/>
       <use xlink:href="#DejaVuSans-2d" x="289.453125"/>
       <use xlink:href="#DejaVuSans-31" x="325.537109"/>
       <use xlink:href="#DejaVuSans-30" x="389.160156"/>
       <use xlink:href="#DejaVuSans-36" x="452.783203"/>
       <use xlink:href="#DejaVuSans-35" x="516.40625"/>
       <use xlink:href="#DejaVuSans-2d" x="580.029297"/>
       <use xlink:href="#DejaVuSans-55" x="616.113281"/>
       <use xlink:href="#DejaVuSans-4e" x="689.306641"/>
       <use xlink:href="#DejaVuSans-53" x="764.111328"/>
       <use xlink:href="#DejaVuSans-41" x="829.462891"/>
       <use xlink:href="#DejaVuSans-54" x="890.121094"/>
      </g>
     </g>
    </g>
    <g id="xtick_16">
     <g id="line2d_16">
      <g>
       <use xlink:href="#m3334a6d7d9" x="684.177147" y="290.270078" style="stroke: #000000; stroke-width: 0.8"/>
      </g>
     </g>
     <g id="text_16">
      <!-- uf50-218-SAT -->
      <g transform="translate(649.689782 334.489085) rotate(-45) scale(0.07 -0.07)">
       <use xlink:href="#DejaVuSans-75"/>
       <use xlink:href="#DejaVuSans-66" x="63.378906"/>
       <use xlink:href="#DejaVuSans-35" x="98.583984"/>
       <use xlink:href="#DejaVuSans-30" x="162.207031"/>
       <use xlink:href="#DejaVuSans-2d" x="225.830078"/>
       <use xlink:href="#DejaVuSans-32" x="261.914062"/>
       <use xlink:href="#DejaVuSans-31" x="325.537109"/>
       <use xlink:href="#DejaVuSans-38" x="389.160156"/>
       <use xlink:href="#DejaVuSans-2d" x="452.783203"/>
       <use xlink:href="#DejaVuSans-53" x="488.867188"/>
       <use xlink:href="#DejaVuSans-41" x="554.21875"/>
       <use xlink:href="#DejaVuSans-54" x="614.876953"/>
      </g>
     </g>
    </g>
    <g id="xtick_17">
     <g id="line2d_17">
      <g>
       <use xlink:href="#m3334a6d7d9" x="723.122505" y="290.270078" style="stroke: #000000; stroke-width: 0.8"/>
      </g>
     </g>
     <g id="text_17">
      <!-- uf50-218-UNSAT -->
      <g transform="translate(681.309513 341.814712) rotate(-45) scale(0.07 -0.07)">
       <use xlink:href="#DejaVuSans-75"/>
       <use xlink:href="#DejaVuSans-66" x="63.378906"/>
       <use xlink:href="#DejaVuSans-35" x="98.583984"/>
       <use xlink:href="#DejaVuSans-30" x="162.207031"/>
       <use xlink:href="#DejaVuSans-2d" x="225.830078"/>
       <use xlink:href="#DejaVuSans-32" x="261.914062"/>
       <use xlink:href="#DejaVuSans-31" x="325.537109"/>
       <use xlink:href="#DejaVuSans-38" x="389.160156"/>
       <use xlink:href="#DejaVuSans-2d" x="452.783203"/>
       <use xlink:href="#DejaVuSans-55" x="488.867188"/>
       <use xlink:href="#DejaVuSans-4e" x="562.060547"/>
       <use xlink:href="#DejaVuSans-53" x="636.865234"/>
       <use xlink:href="#DejaVuSans-41" x="702.216797"/>
       <use xlink:href="#DejaVuSans-54" x="762.875"/>
      </g>
     </g>
    </g>
    <g id="xtick_18">
     <g id="line2d_18">
      <g>
       <use xlink:href="#m3334a6d7d9" x="762.067863" y="290.270078" style="stroke: #000000; stroke-width: 0.8"/>
      </g>
     </g>
     <g id="text_18">
      <!-- uf75-325-SAT -->
      <g transform="translate(727.580497 334.489085) rotate(-45) scale(0.07 -0.07)">
       <use xlink:href="#DejaVuSans-75"/>
       <use xlink:href="#DejaVuSans-66" x="63.378906"/>
       <use xlink:href="#DejaVuSans-37" x="98.583984"/>
       <use xlink:href="#DejaVuSans-35" x="162.207031"/>
       <use xlink:href="#DejaVuSans-2d" x="225.830078"/>
       <use xlink:href="#DejaVuSans-33" x="261.914062"/>
       <use xlink:href="#DejaVuSans-32" x="325.537109"/>
       <use xlink:href="#DejaVuSans-35" x="389.160156"/>
       <use xlink:href="#DejaVuSans-2d" x="452.783203"/>
       <use xlink:href="#DejaVuSans-53" x="488.867188"/>
       <use xlink:href="#DejaVuSans-41" x="554.21875"/>
       <use xlink:href="#DejaVuSans-54" x="614.876953"/>
      </g>
     </g>
    </g>
    <g id="xtick_19">
     <g id="line2d_19">
      <g>
       <use xlink:href="#m3334a6d7d9" x="801.013221" y="290.270078" style="stroke: #000000; stroke-width: 0.8"/>
      </g>
     </g>
     <g id="text_19">
      <!-- uf75-325-UNSAT -->
      <g transform="translate(759.200229 341.814712) rotate(-45) scale(0.07 -0.07)">
       <use xlink:href="#DejaVuSans-75"/>
       <use xlink:href="#DejaVuSans-66" x="63.378906"/>
       <use xlink:href="#DejaVuSans-37" x="98.583984"/>
       <use xlink:href="#DejaVuSans-35" x="162.207031"/>
       <use xlink:href="#DejaVuSans-2d" x="225.830078"/>
       <use xlink:href="#DejaVuSans-33" x="261.914062"/>
       <use xlink:href="#DejaVuSans-32" x="325.537109"/>
       <use xlink:href="#DejaVuSans-35" x="389.160156"/>
       <use xlink:href="#DejaVuSans-2d" x="452.783203"/>
       <use xlink:href="#DejaVuSans-55" x="488.867188"/>
       <use xlink:href="#DejaVuSans-4e" x="562.060547"/>
       <use xlink:href="#DejaVuSans-53" x="636.865234"/>
       <use xlink:href="#DejaVuSans-41" x="702.216797"/>
       <use xlink:href="#DejaVuSans-54" x="762.875"/>
      </g>
     </g>
    </g>
   </g>
   <g id="matplotlib.axis_2">
    <g id="ytick_1">
     <g id="line2d_20">
      <defs>
       <path id="ma5f0ef0b59" d="M 0 0 
L -3.5 0 
" style="stroke: #000000; stroke-width: 0.8"/>
      </defs>
      <g>
       <use xlink:href="#ma5f0ef0b59" x="47.81" y="290.270078" style="stroke: #000000; stroke-width: 0.8"/>
      </g>
     </g>
     <g id="text_20">
      <!-- 0.0 -->
      <g transform="translate(24.906875 294.069297) scale(0.1 -0.1)">
       <defs>
        <path id="DejaVuSans-2e" d="M 684 794 
L 1344 794 
L 1344 0 
L 684 0 
L 684 794 
z
" transform="scale(0.015625)"/>
       </defs>
       <use xlink:href="#DejaVuSans-30"/>
       <use xlink:href="#DejaVuSans-2e" x="63.623047"/>
       <use xlink:href="#DejaVuSans-30" x="95.410156"/>
      </g>
     </g>
    </g>
    <g id="ytick_2">
     <g id="line2d_21">
      <g>
       <use xlink:href="#ma5f0ef0b59" x="47.81" y="259.322946" style="stroke: #000000; stroke-width: 0.8"/>
      </g>
     </g>
     <g id="text_21">
      <!-- 0.2 -->
      <g transform="translate(24.906875 263.122165) scale(0.1 -0.1)">
       <use xlink:href="#DejaVuSans-30"/>
       <use xlink:href="#DejaVuSans-2e" x="63.623047"/>
       <use xlink:href="#DejaVuSans-32" x="95.410156"/>
      </g>
     </g>
    </g>
    <g id="ytick_3">
     <g id="line2d_22">
      <g>
       <use xlink:href="#ma5f0ef0b59" x="47.81" y="228.375815" style="stroke: #000000; stroke-width: 0.8"/>
      </g>
     </g>
     <g id="text_22">
      <!-- 0.4 -->
      <g transform="translate(24.906875 232.175034) scale(0.1 -0.1)">
       <use xlink:href="#DejaVuSans-30"/>
       <use xlink:href="#DejaVuSans-2e" x="63.623047"/>
       <use xlink:href="#DejaVuSans-34" x="95.410156"/>
      </g>
     </g>
    </g>
    <g id="ytick_4">
     <g id="line2d_23">
      <g>
       <use xlink:href="#ma5f0ef0b59" x="47.81" y="197.428683" style="stroke: #000000; stroke-width: 0.8"/>
      </g>
     </g>
     <g id="text_23">
      <!-- 0.6 -->
      <g transform="translate(24.906875 201.227902) scale(0.1 -0.1)">
       <use xlink:href="#DejaVuSans-30"/>
       <use xlink:href="#DejaVuSans-2e" x="63.623047"/>
       <use xlink:href="#DejaVuSans-36" x="95.410156"/>
      </g>
     </g>
    </g>
    <g id="ytick_5">
     <g id="line2d_24">
      <g>
       <use xlink:href="#ma5f0ef0b59" x="47.81" y="166.481552" style="stroke: #000000; stroke-width: 0.8"/>
      </g>
     </g>
     <g id="text_24">
      <!-- 0.8 -->
      <g transform="translate(24.906875 170.280771) scale(0.1 -0.1)">
       <use xlink:href="#DejaVuSans-30"/>
       <use xlink:href="#DejaVuSans-2e" x="63.623047"/>
       <use xlink:href="#DejaVuSans-38" x="95.410156"/>
      </g>
     </g>
    </g>
    <g id="ytick_6">
     <g id="line2d_25">
      <g>
       <use xlink:href="#ma5f0ef0b59" x="47.81" y="135.53442" style="stroke: #000000; stroke-width: 0.8"/>
      </g>
     </g>
     <g id="text_25">
      <!-- 1.0 -->
      <g transform="translate(24.906875 139.333639) scale(0.1 -0.1)">
       <use xlink:href="#DejaVuSans-31"/>
       <use xlink:href="#DejaVuSans-2e" x="63.623047"/>
       <use xlink:href="#DejaVuSans-30" x="95.410156"/>
      </g>
     </g>
    </g>
    <g id="ytick_7">
     <g id="line2d_26">
      <g>
       <use xlink:href="#ma5f0ef0b59" x="47.81" y="104.587289" style="stroke: #000000; stroke-width: 0.8"/>
      </g>
     </g>
     <g id="text_26">
      <!-- 1.2 -->
      <g transform="translate(24.906875 108.386508) scale(0.1 -0.1)">
       <use xlink:href="#DejaVuSans-31"/>
       <use xlink:href="#DejaVuSans-2e" x="63.623047"/>
       <use xlink:href="#DejaVuSans-32" x="95.410156"/>
      </g>
     </g>
    </g>
    <g id="ytick_8">
     <g id="line2d_27">
      <g>
       <use xlink:href="#ma5f0ef0b59" x="47.81" y="73.640157" style="stroke: #000000; stroke-width: 0.8"/>
      </g>
     </g>
     <g id="text_27">
      <!-- 1.4 -->
      <g transform="translate(24.906875 77.439376) scale(0.1 -0.1)">
       <use xlink:href="#DejaVuSans-31"/>
       <use xlink:href="#DejaVuSans-2e" x="63.623047"/>
       <use xlink:href="#DejaVuSans-34" x="95.410156"/>
      </g>
     </g>
    </g>
    <g id="ytick_9">
     <g id="line2d_28">
      <g>
       <use xlink:href="#ma5f0ef0b59" x="47.81" y="42.693026" style="stroke: #000000; stroke-width: 0.8"/>
      </g>
     </g>
     <g id="text_28">
      <!-- 1.6 -->
      <g transform="translate(24.906875 46.492245) scale(0.1 -0.1)">
       <use xlink:href="#DejaVuSans-31"/>
       <use xlink:href="#DejaVuSans-2e" x="63.623047"/>
       <use xlink:href="#DejaVuSans-36" x="95.410156"/>
      </g>
     </g>
    </g>
    <g id="text_29">
     <!-- Speedup (MiniSat / CDCL) -->
     <g transform="translate(18.827187 222.305039) rotate(-90) scale(0.1 -0.1)">
      <defs>
       <path id="DejaVuSans-70" d="M 1159 525 
L 1159 -1331 
L 581 -1331 
L 581 3500 
L 1159 3500 
L 1159 2969 
Q 1341 3281 1617 3432 
Q 1894 3584 2278 3584 
Q 2916 3584 3314 3078 
Q 3713 2572 3713 1747 
Q 3713 922 3314 415 
Q 2916 -91 2278 -91 
Q 1894 -91 1617 61 
Q 1341 213 1159 525 
z
M 3116 1747 
Q 3116 2381 2855 2742 
Q 2594 3103 2138 3103 
Q 1681 3103 1420 2742 
Q 1159 2381 1159 1747 
Q 1159 1113 1420 752 
Q 1681 391 2138 391 
Q 2594 391 2855 752 
Q 3116 1113 3116 1747 
z
" transform="scale(0.015625)"/>
       <path id="DejaVuSans-65" d="M 3597 1894 
L 3597 1613 
L 953 1613 
Q 991 1019 1311 708 
Q 1631 397 2203 397 
Q 2534 397 2845 478 
Q 3156 559 3463 722 
L 3463 178 
Q 3153 47 2828 -22 
Q 2503 -91 2169 -91 
Q 1331 -91 842 396 
Q 353 884 353 1716 
Q 353 2575 817 3079 
Q 1281 3584 2069 3584 
Q 2775 3584 3186 3129 
Q 3597 2675 3597 1894 
z
M 3022 2063 
Q 3016 2534 2758 2815 
Q 2500 3097 2075 3097 
Q 1594 3097 1305 2825 
Q 1016 2553 972 2059 
L 3022 2063 
z
" transform="scale(0.015625)"/>
       <path id="DejaVuSans-64" d="M 2906 2969 
L 2906 4863 
L 3481 4863 
L 3481 0 
L 2906 0 
L 2906 525 
Q 2725 213 2448 61 
Q 2172 -91 1784 -91 
Q 1150 -91 751 415 
Q 353 922 353 1747 
Q 353 2572 751 3078 
Q 1150 3584 1784 3584 
Q 2172 3584 2448 3432 
Q 2725 3281 2906 2969 
z
M 947 1747 
Q 947 1113 1208 752 
Q 1469 391 1925 391 
Q 2381 391 2643 752 
Q 2906 1113 2906 1747 
Q 2906 2381 2643 2742 
Q 2381 3103 1925 3103 
Q 1469 3103 1208 2742 
Q 947 2381 947 1747 
z
" transform="scale(0.015625)"/>
       <path id="DejaVuSans-20" transform="scale(0.015625)"/>
       <path id="DejaVuSans-28" d="M 1984 4856 
Q 1566 4138 1362 3434 
Q 1159 2731 1159 2009 
Q 1159 1288 1364 580 
Q 1569 -128 1984 -844 
L 1484 -844 
Q 1016 -109 783 600 
Q 550 1309 550 2009 
Q 550 2706 781 3412 
Q 1013 4119 1484 4856 
L 1984 4856 
z
" transform="scale(0.015625)"/>
       <path id="DejaVuSans-4d" d="M 628 4666 
L 1569 4666 
L 2759 1491 
L 3956 4666 
L 4897 4666 
L 4897 0 
L 4281 0 
L 4281 4097 
L 3078 897 
L 2444 897 
L 1241 4097 
L 1241 0 
L 628 0 
L 628 4666 
z
" transform="scale(0.015625)"/>
       <path id="DejaVuSans-69" d="M 603 3500 
L 1178 3500 
L 1178 0 
L 603 0 
L 603 3500 
z
M 603 4863 
L 1178 4863 
L 1178 4134 
L 603 4134 
L 603 4863 
z
" transform="scale(0.015625)"/>
       <path id="DejaVuSans-6e" d="M 3513 2113 
L 3513 0 
L 2938 0 
L 2938 2094 
Q 2938 2591 2744 2837 
Q 2550 3084 2163 3084 
Q 1697 3084 1428 2787 
Q 1159 2491 1159 1978 
L 1159 0 
L 581 0 
L 581 3500 
L 1159 3500 
L 1159 2956 
Q 1366 3272 1645 3428 
Q 1925 3584 2291 3584 
Q 2894 3584 3203 3211 
Q 3513 2838 3513 2113 
z
" transform="scale(0.015625)"/>
       <path id="DejaVuSans-61" d="M 2194 1759 
Q 1497 1759 1228 1600 
Q 959 1441 959 1056 
Q 959 750 1161 570 
Q 1363 391 1709 391 
Q 2188 391 2477 730 
Q 2766 1069 2766 1631 
L 2766 1759 
L 2194 1759 
z
M 3341 1997 
L 3341 0 
L 2766 0 
L 2766 531 
Q 2569 213 2275 61 
Q 1981 -91 1556 -91 
Q 1019 -91 701 211 
Q 384 513 384 1019 
Q 384 1609 779 1909 
Q 1175 2209 1959 2209 
L 2766 2209 
L 2766 2266 
Q 2766 2663 2505 2880 
Q 2244 3097 1772 3097 
Q 1472 3097 1187 3025 
Q 903 2953 641 2809 
L 641 3341 
Q 956 3463 1253 3523 
Q 1550 3584 1831 3584 
Q 2591 3584 2966 3190 
Q 3341 2797 3341 1997 
z
" transform="scale(0.015625)"/>
       <path id="DejaVuSans-74" d="M 1172 4494 
L 1172 3500 
L 2356 3500 
L 2356 3053 
L 1172 3053 
L 1172 1153 
Q 1172 725 1289 603 
Q 1406 481 1766 481 
L 2356 481 
L 2356 0 
L 1766 0 
Q 1100 0 847 248 
Q 594 497 594 1153 
L 594 3053 
L 172 3053 
L 172 3500 
L 594 3500 
L 594 4494 
L 1172 4494 
z
" transform="scale(0.015625)"/>
       <path id="DejaVuSans-2f" d="M 1625 4666 
L 2156 4666 
L 531 -594 
L 0 -594 
L 1625 4666 
z
" transform="scale(0.015625)"/>
       <path id="DejaVuSans-43" d="M 4122 4306 
L 4122 3641 
Q 3803 3938 3442 4084 
Q 3081 4231 2675 4231 
Q 1875 4231 1450 3742 
Q 1025 3253 1025 2328 
Q 1025 1406 1450 917 
Q 1875 428 2675 428 
Q 3081 428 3442 575 
Q 3803 722 4122 1019 
L 4122 359 
Q 3791 134 3420 21 
Q 3050 -91 2638 -91 
Q 1578 -91 968 557 
Q 359 1206 359 2328 
Q 359 3453 968 4101 
Q 1578 4750 2638 4750 
Q 3056 4750 3426 4639 
Q 3797 4528 4122 4306 
z
" transform="scale(0.015625)"/>
       <path id="DejaVuSans-44" d="M 1259 4147 
L 1259 519 
L 2022 519 
Q 2988 519 3436 956 
Q 3884 1394 3884 2338 
Q 3884 3275 3436 3711 
Q 2988 4147 2022 4147 
L 1259 4147 
z
M 628 4666 
L 1925 4666 
Q 3281 4666 3915 4102 
Q 4550 3538 4550 2338 
Q 4550 1131 3912 565 
Q 3275 0 1925 0 
L 628 0 
L 628 4666 
z
" transform="scale(0.015625)"/>
       <path id="DejaVuSans-4c" d="M 628 4666 
L 1259 4666 
L 1259 531 
L 3531 531 
L 3531 0 
L 628 0 
L 628 4666 
z
" transform="scale(0.015625)"/>
       <path id="DejaVuSans-29" d="M 513 4856 
L 1013 4856 
Q 1481 4119 1714 3412 
Q 1947 2706 1947 2009 
Q 1947 1309 1714 600 
Q 1481 -109 1013 -844 
L 513 -844 
Q 928 -128 1133 580 
Q 1338 1288 1338 2009 
Q 1338 2731 1133 3434 
Q 928 4138 513 4856 
z
" transform="scale(0.015625)"/>
      </defs>
      <use xlink:href="#DejaVuSans-53"/>
      <use xlink:href="#DejaVuSans-70" x="63.476562"/>
      <use xlink:href="#DejaVuSans-65" x="126.953125"/>
      <use xlink:href="#DejaVuSans-65" x="188.476562"/>
      <use xlink:href="#DejaVuSans-64" x="250"/>
      <use xlink:href="#DejaVuSans-75" x="313.476562"/>
      <use xlink:href="#DejaVuSans-70" x="376.855469"/>
      <use xlink:href="#DejaVuSans-20" x="440.332031"/>
      <use xlink:href="#DejaVuSans-28" x="472.119141"/>
      <use xlink:href="#DejaVuSans-4d" x="511.132812"/>
      <use xlink:href="#DejaVuSans-69" x="597.412109"/>
      <use xlink:href="#DejaVuSans-6e" x="625.195312"/>
      <use xlink:href="#DejaVuSans-69" x="688.574219"/>
      <use xlink:href="#DejaVuSans-53" x="716.357422"/>
      <use xlink:href="#DejaVuSans-61" x="779.833984"/>
      <use xlink:href="#DejaVuSans-74" x="841.113281"/>
      <use xlink:href="#DejaVuSans-20" x="880.322266"/>
      <use xlink:href="#DejaVuSans-2f" x="912.109375"/>
      <use xlink:href="#DejaVuSans-20" x="945.800781"/>
      <use xlink:href="#DejaVuSans-43" x="977.587891"/>
      <use xlink:href="#DejaVuSans-44" x="1047.412109"/>
      <use xlink:href="#DejaVuSans-43" x="1124.414062"/>
      <use xlink:href="#DejaVuSans-4c" x="1194.238281"/>
      <use xlink:href="#DejaVuSans-29" x="1249.951172"/>
     </g>
    </g>
   </g>
   <g id="line2d_29">
    <path d="M 47.81 135.53442 
L 853.2 135.53442 
" clip-path="url(#pd4284ddd4e)" style="fill: none; stroke-dasharray: 3.7,1.6; stroke-dashoffset: 0; stroke: #000000"/>
   </g>
   <g id="patch_22">
    <path d="M 47.81 290.270078 
L 47.81 25.44 
" style="fill: none; stroke: #000000; stroke-width: 0.8; stroke-linejoin: miter; stroke-linecap: square"/>
   </g>
   <g id="patch_23">
    <path d="M 853.2 290.270078 
L 853.2 25.44 
" style="fill: none; stroke: #000000; stroke-width: 0.8; stroke-linejoin: miter; stroke-linecap: square"/>
   </g>
   <g id="patch_24">
    <path d="M 47.81 290.270078 
L 853.2 290.270078 
" style="fill: none; stroke: #000000; stroke-width: 0.8; stroke-linejoin: miter; stroke-linecap: square"/>
   </g>
   <g id="patch_25">
    <path d="M 47.81 25.44 
L 853.2 25.44 
" style="fill: none; stroke: #000000; stroke-width: 0.8; stroke-linejoin: miter; stroke-linecap: square"/>
   </g>
   <g id="text_30">
    <!-- 0.43x -->
    <g style="fill: #f44336" transform="translate(89.104123 220.639032) scale(0.07 -0.07)">
     <defs>
      <path id="DejaVuSans-Bold-30" d="M 2944 2338 
Q 2944 3213 2780 3570 
Q 2616 3928 2228 3928 
Q 1841 3928 1675 3570 
Q 1509 3213 1509 2338 
Q 1509 1453 1675 1090 
Q 1841 728 2228 728 
Q 2613 728 2778 1090 
Q 2944 1453 2944 2338 
z
M 4147 2328 
Q 4147 1169 3647 539 
Q 3147 -91 2228 -91 
Q 1306 -91 806 539 
Q 306 1169 306 2328 
Q 306 3491 806 4120 
Q 1306 4750 2228 4750 
Q 3147 4750 3647 4120 
Q 4147 3491 4147 2328 
z
" transform="scale(0.015625)"/>
      <path id="DejaVuSans-Bold-2e" d="M 653 1209 
L 1778 1209 
L 1778 0 
L 653 0 
L 653 1209 
z
" transform="scale(0.015625)"/>
      <path id="DejaVuSans-Bold-34" d="M 2356 3675 
L 1038 1722 
L 2356 1722 
L 2356 3675 
z
M 2156 4666 
L 3494 4666 
L 3494 1722 
L 4159 1722 
L 4159 850 
L 3494 850 
L 3494 0 
L 2356 0 
L 2356 850 
L 288 850 
L 288 1881 
L 2156 4666 
z
" transform="scale(0.015625)"/>
      <path id="DejaVuSans-Bold-33" d="M 2981 2516 
Q 3453 2394 3698 2092 
Q 3944 1791 3944 1325 
Q 3944 631 3412 270 
Q 2881 -91 1863 -91 
Q 1503 -91 1142 -33 
Q 781 25 428 141 
L 428 1069 
Q 766 900 1098 814 
Q 1431 728 1753 728 
Q 2231 728 2486 893 
Q 2741 1059 2741 1369 
Q 2741 1688 2480 1852 
Q 2219 2016 1709 2016 
L 1228 2016 
L 1228 2791 
L 1734 2791 
Q 2188 2791 2409 2933 
Q 2631 3075 2631 3366 
Q 2631 3634 2415 3781 
Q 2200 3928 1806 3928 
Q 1516 3928 1219 3862 
Q 922 3797 628 3669 
L 628 4550 
Q 984 4650 1334 4700 
Q 1684 4750 2022 4750 
Q 2931 4750 3382 4451 
Q 3834 4153 3834 3553 
Q 3834 3144 3618 2883 
Q 3403 2622 2981 2516 
z
" transform="scale(0.015625)"/>
      <path id="DejaVuSans-Bold-78" d="M 1422 1791 
L 159 3500 
L 1344 3500 
L 2059 2463 
L 2784 3500 
L 3969 3500 
L 2706 1797 
L 4031 0 
L 2847 0 
L 2059 1106 
L 1281 0 
L 97 0 
L 1422 1791 
z
" transform="scale(0.015625)"/>
     </defs>
     <use xlink:href="#DejaVuSans-Bold-30"/>
     <use xlink:href="#DejaVuSans-Bold-2e" x="69.580078"/>
     <use xlink:href="#DejaVuSans-Bold-34" x="107.568359"/>
     <use xlink:href="#DejaVuSans-Bold-33" x="177.148438"/>
     <use xlink:href="#DejaVuSans-Bold-78" x="246.728516"/>
    </g>
   </g>
   <g id="text_31">
    <!-- 1.43x -->
    <g style="fill: #4caf50" transform="translate(128.049481 65.903374) scale(0.07 -0.07)">
     <defs>
      <path id="DejaVuSans-Bold-31" d="M 750 831 
L 1813 831 
L 1813 3847 
L 722 3622 
L 722 4441 
L 1806 4666 
L 2950 4666 
L 2950 831 
L 4013 831 
L 4013 0 
L 750 0 
L 750 831 
z
" transform="scale(0.015625)"/>
     </defs>
     <use xlink:href="#DejaVuSans-Bold-31"/>
     <use xlink:href="#DejaVuSans-Bold-2e" x="69.580078"/>
     <use xlink:href="#DejaVuSans-Bold-34" x="107.568359"/>
     <use xlink:href="#DejaVuSans-Bold-33" x="177.148438"/>
     <use xlink:href="#DejaVuSans-Bold-78" x="246.728516"/>
    </g>
   </g>
   <g id="text_32">
    <!-- 0.78x -->
    <g style="fill: #f44336" transform="translate(166.994839 166.481552) scale(0.07 -0.07)">
     <defs>
      <path id="DejaVuSans-Bold-37" d="M 428 4666 
L 3944 4666 
L 3944 3988 
L 2125 0 
L 953 0 
L 2675 3781 
L 428 3781 
L 428 4666 
z
" transform="scale(0.015625)"/>
      <path id="DejaVuSans-Bold-38" d="M 2228 2088 
Q 1891 2088 1709 1903 
Q 1528 1719 1528 1375 
Q 1528 1031 1709 848 
Q 1891 666 2228 666 
Q 2563 666 2741 848 
Q 2919 1031 2919 1375 
Q 2919 1722 2741 1905 
Q 2563 2088 2228 2088 
z
M 1350 2484 
Q 925 2613 709 2878 
Q 494 3144 494 3541 
Q 494 4131 934 4440 
Q 1375 4750 2228 4750 
Q 3075 4750 3515 4442 
Q 3956 4134 3956 3541 
Q 3956 3144 3739 2878 
Q 3522 2613 3097 2484 
Q 3572 2353 3814 2058 
Q 4056 1763 4056 1313 
Q 4056 619 3595 264 
Q 3134 -91 2228 -91 
Q 1319 -91 855 264 
Q 391 619 391 1313 
Q 391 1763 633 2058 
Q 875 2353 1350 2484 
z
M 1631 3419 
Q 1631 3141 1786 2991 
Q 1941 2841 2228 2841 
Q 2509 2841 2662 2991 
Q 2816 3141 2816 3419 
Q 2816 3697 2662 3845 
Q 2509 3994 2228 3994 
Q 1941 3994 1786 3844 
Q 1631 3694 1631 3419 
z
" transform="scale(0.015625)"/>
     </defs>
     <use xlink:href="#DejaVuSans-Bold-30"/>
     <use xlink:href="#DejaVuSans-Bold-2e" x="69.580078"/>
     <use xlink:href="#DejaVuSans-Bold-37" x="107.568359"/>
     <use xlink:href="#DejaVuSans-Bold-38" x="177.148438"/>
     <use xlink:href="#DejaVuSans-Bold-78" x="246.728516"/>
    </g>
   </g>
   <g id="text_33">
    <!-- 0.68x -->
    <g style="fill: #f44336" transform="translate(205.940197 181.955118) scale(0.07 -0.07)">
     <defs>
      <path id="DejaVuSans-Bold-36" d="M 2316 2303 
Q 2000 2303 1842 2098 
Q 1684 1894 1684 1484 
Q 1684 1075 1842 870 
Q 2000 666 2316 666 
Q 2634 666 2792 870 
Q 2950 1075 2950 1484 
Q 2950 1894 2792 2098 
Q 2634 2303 2316 2303 
z
M 3803 4544 
L 3803 3681 
Q 3506 3822 3243 3889 
Q 2981 3956 2731 3956 
Q 2194 3956 1894 3657 
Q 1594 3359 1544 2772 
Q 1750 2925 1990 3001 
Q 2231 3078 2516 3078 
Q 3231 3078 3670 2659 
Q 4109 2241 4109 1563 
Q 4109 813 3618 361 
Q 3128 -91 2303 -91 
Q 1394 -91 895 523 
Q 397 1138 397 2266 
Q 397 3422 980 4083 
Q 1563 4744 2578 4744 
Q 2900 4744 3203 4694 
Q 3506 4644 3803 4544 
z
" transform="scale(0.015625)"/>
     </defs>
     <use xlink:href="#DejaVuSans-Bold-30"/>
     <use xlink:href="#DejaVuSans-Bold-2e" x="69.580078"/>
     <use xlink:href="#DejaVuSans-Bold-36" x="107.568359"/>
     <use xlink:href="#DejaVuSans-Bold-38" x="177.148438"/>
     <use xlink:href="#DejaVuSans-Bold-78" x="246.728516"/>
    </g>
   </g>
   <g id="text_34">
    <!-- 0.40x -->
    <g style="fill: #f44336" transform="translate(244.885555 225.281102) scale(0.07 -0.07)">
     <use xlink:href="#DejaVuSans-Bold-30"/>
     <use xlink:href="#DejaVuSans-Bold-2e" x="69.580078"/>
     <use xlink:href="#DejaVuSans-Bold-34" x="107.568359"/>
     <use xlink:href="#DejaVuSans-Bold-30" x="177.148438"/>
     <use xlink:href="#DejaVuSans-Bold-78" x="246.728516"/>
    </g>
   </g>
   <g id="text_35">
    <!-- 0.26x -->
    <g style="fill: #f44336" transform="translate(283.830912 246.944094) scale(0.07 -0.07)">
     <defs>
      <path id="DejaVuSans-Bold-32" d="M 1844 884 
L 3897 884 
L 3897 0 
L 506 0 
L 506 884 
L 2209 2388 
Q 2438 2594 2547 2791 
Q 2656 2988 2656 3200 
Q 2656 3528 2436 3728 
Q 2216 3928 1850 3928 
Q 1569 3928 1234 3808 
Q 900 3688 519 3450 
L 519 4475 
Q 925 4609 1322 4679 
Q 1719 4750 2100 4750 
Q 2938 4750 3402 4381 
Q 3866 4013 3866 3353 
Q 3866 2972 3669 2642 
Q 3472 2313 2841 1759 
L 1844 884 
z
" transform="scale(0.015625)"/>
     </defs>
     <use xlink:href="#DejaVuSans-Bold-30"/>
     <use xlink:href="#DejaVuSans-Bold-2e" x="69.580078"/>
     <use xlink:href="#DejaVuSans-Bold-32" x="107.568359"/>
     <use xlink:href="#DejaVuSans-Bold-36" x="177.148438"/>
     <use xlink:href="#DejaVuSans-Bold-78" x="246.728516"/>
    </g>
   </g>
   <g id="text_36">
    <!-- 0.22x -->
    <g style="fill: #f44336" transform="translate(322.77627 253.13352) scale(0.07 -0.07)">
     <use xlink:href="#DejaVuSans-Bold-30"/>
     <use xlink:href="#DejaVuSans-Bold-2e" x="69.580078"/>
     <use xlink:href="#DejaVuSans-Bold-32" x="107.568359"/>
     <use xlink:href="#DejaVuSans-Bold-32" x="177.148438"/>
     <use xlink:href="#DejaVuSans-Bold-78" x="246.728516"/>
    </g>
   </g>
   <g id="text_37">
    <!-- 0.19x -->
    <g style="fill: #f44336" transform="translate(361.721628 257.77559) scale(0.07 -0.07)">
     <defs>
      <path id="DejaVuSans-Bold-39" d="M 641 103 
L 641 966 
Q 928 831 1190 764 
Q 1453 697 1709 697 
Q 2247 697 2547 995 
Q 2847 1294 2900 1881 
Q 2688 1725 2447 1647 
Q 2206 1569 1925 1569 
Q 1209 1569 770 1986 
Q 331 2403 331 3084 
Q 331 3838 820 4291 
Q 1309 4744 2131 4744 
Q 3044 4744 3544 4128 
Q 4044 3513 4044 2388 
Q 4044 1231 3459 570 
Q 2875 -91 1856 -91 
Q 1528 -91 1228 -42 
Q 928 6 641 103 
z
M 2125 2350 
Q 2441 2350 2600 2554 
Q 2759 2759 2759 3169 
Q 2759 3575 2600 3781 
Q 2441 3988 2125 3988 
Q 1809 3988 1650 3781 
Q 1491 3575 1491 3169 
Q 1491 2759 1650 2554 
Q 1809 2350 2125 2350 
z
" transform="scale(0.015625)"/>
     </defs>
     <use xlink:href="#DejaVuSans-Bold-30"/>
     <use xlink:href="#DejaVuSans-Bold-2e" x="69.580078"/>
     <use xlink:href="#DejaVuSans-Bold-31" x="107.568359"/>
     <use xlink:href="#DejaVuSans-Bold-39" x="177.148438"/>
     <use xlink:href="#DejaVuSans-Bold-78" x="246.728516"/>
    </g>
   </g>
   <g id="text_38">
    <!-- 0.54x -->
    <g style="fill: #f44336" transform="translate(400.666986 203.61811) scale(0.07 -0.07)">
     <defs>
      <path id="DejaVuSans-Bold-35" d="M 678 4666 
L 3669 4666 
L 3669 3781 
L 1638 3781 
L 1638 3059 
Q 1775 3097 1914 3117 
Q 2053 3138 2203 3138 
Q 3056 3138 3531 2711 
Q 4006 2284 4006 1522 
Q 4006 766 3489 337 
Q 2972 -91 2053 -91 
Q 1656 -91 1267 -14 
Q 878 63 494 219 
L 494 1166 
Q 875 947 1217 837 
Q 1559 728 1863 728 
Q 2300 728 2551 942 
Q 2803 1156 2803 1522 
Q 2803 1891 2551 2103 
Q 2300 2316 1863 2316 
Q 1603 2316 1309 2248 
Q 1016 2181 678 2041 
L 678 4666 
z
" transform="scale(0.015625)"/>
     </defs>
     <use xlink:href="#DejaVuSans-Bold-30"/>
     <use xlink:href="#DejaVuSans-Bold-2e" x="69.580078"/>
     <use xlink:href="#DejaVuSans-Bold-35" x="107.568359"/>
     <use xlink:href="#DejaVuSans-Bold-34" x="177.148438"/>
     <use xlink:href="#DejaVuSans-Bold-78" x="246.728516"/>
    </g>
   </g>
   <g id="text_39">
    <!-- 0.02x -->
    <g style="fill: #f44336" transform="translate(439.612344 284.080652) scale(0.07 -0.07)">
     <use xlink:href="#DejaVuSans-Bold-30"/>
     <use xlink:href="#DejaVuSans-Bold-2e" x="69.580078"/>
     <use xlink:href="#DejaVuSans-Bold-30" x="107.568359"/>
     <use xlink:href="#DejaVuSans-Bold-32" x="177.148438"/>
     <use xlink:href="#DejaVuSans-Bold-78" x="246.728516"/>
    </g>
   </g>
   <g id="text_40">
    <!-- 0.02x -->
    <g style="fill: #f44336" transform="translate(478.557702 284.080652) scale(0.07 -0.07)">
     <use xlink:href="#DejaVuSans-Bold-30"/>
     <use xlink:href="#DejaVuSans-Bold-2e" x="69.580078"/>
     <use xlink:href="#DejaVuSans-Bold-30" x="107.568359"/>
     <use xlink:href="#DejaVuSans-Bold-32" x="177.148438"/>
     <use xlink:href="#DejaVuSans-Bold-78" x="246.728516"/>
    </g>
   </g>
   <g id="text_41">
    <!-- 0.01x -->
    <g style="fill: #f44336" transform="translate(517.503059 285.628008) scale(0.07 -0.07)">
     <use xlink:href="#DejaVuSans-Bold-30"/>
     <use xlink:href="#DejaVuSans-Bold-2e" x="69.580078"/>
     <use xlink:href="#DejaVuSans-Bold-30" x="107.568359"/>
     <use xlink:href="#DejaVuSans-Bold-31" x="177.148438"/>
     <use xlink:href="#DejaVuSans-Bold-78" x="246.728516"/>
    </g>
   </g>
   <g id="text_42">
    <!-- 0.01x -->
    <g style="fill: #f44336" transform="translate(556.448417 285.628008) scale(0.07 -0.07)">
     <use xlink:href="#DejaVuSans-Bold-30"/>
     <use xlink:href="#DejaVuSans-Bold-2e" x="69.580078"/>
     <use xlink:href="#DejaVuSans-Bold-30" x="107.568359"/>
     <use xlink:href="#DejaVuSans-Bold-31" x="177.148438"/>
     <use xlink:href="#DejaVuSans-Bold-78" x="246.728516"/>
    </g>
   </g>
   <g id="text_43">
    <!-- 0.01x -->
    <g style="fill: #f44336" transform="translate(595.393775 285.628008) scale(0.07 -0.07)">
     <use xlink:href="#DejaVuSans-Bold-30"/>
     <use xlink:href="#DejaVuSans-Bold-2e" x="69.580078"/>
     <use xlink:href="#DejaVuSans-Bold-30" x="107.568359"/>
     <use xlink:href="#DejaVuSans-Bold-31" x="177.148438"/>
     <use xlink:href="#DejaVuSans-Bold-78" x="246.728516"/>
    </g>
   </g>
   <g id="text_44">
    <!-- 0.01x -->
    <g style="fill: #f44336" transform="translate(634.339133 285.628008) scale(0.07 -0.07)">
     <use xlink:href="#DejaVuSans-Bold-30"/>
     <use xlink:href="#DejaVuSans-Bold-2e" x="69.580078"/>
     <use xlink:href="#DejaVuSans-Bold-30" x="107.568359"/>
     <use xlink:href="#DejaVuSans-Bold-31" x="177.148438"/>
     <use xlink:href="#DejaVuSans-Bold-78" x="246.728516"/>
    </g>
   </g>
   <g id="text_45">
    <!-- 1.63x -->
    <g style="fill: #4caf50" transform="translate(673.284491 34.956243) scale(0.07 -0.07)">
     <use xlink:href="#DejaVuSans-Bold-31"/>
     <use xlink:href="#DejaVuSans-Bold-2e" x="69.580078"/>
     <use xlink:href="#DejaVuSans-Bold-36" x="107.568359"/>
     <use xlink:href="#DejaVuSans-Bold-33" x="177.148438"/>
     <use xlink:href="#DejaVuSans-Bold-78" x="246.728516"/>
    </g>
   </g>
   <g id="text_46">
    <!-- 0.49x -->
    <g style="fill: #f44336" transform="translate(712.229849 211.354893) scale(0.07 -0.07)">
     <use xlink:href="#DejaVuSans-Bold-30"/>
     <use xlink:href="#DejaVuSans-Bold-2e" x="69.580078"/>
     <use xlink:href="#DejaVuSans-Bold-34" x="107.568359"/>
     <use xlink:href="#DejaVuSans-Bold-39" x="177.148438"/>
     <use xlink:href="#DejaVuSans-Bold-78" x="246.728516"/>
    </g>
   </g>
   <g id="text_47">
    <!-- 0.97x -->
    <g style="fill: #f44336" transform="translate(751.175206 137.081777) scale(0.07 -0.07)">
     <use xlink:href="#DejaVuSans-Bold-30"/>
     <use xlink:href="#DejaVuSans-Bold-2e" x="69.580078"/>
     <use xlink:href="#DejaVuSans-Bold-39" x="107.568359"/>
     <use xlink:href="#DejaVuSans-Bold-37" x="177.148438"/>
     <use xlink:href="#DejaVuSans-Bold-78" x="246.728516"/>
    </g>
   </g>
   <g id="text_48">
    <!-- 0.82x -->
    <g style="fill: #f44336" transform="translate(790.120564 160.292126) scale(0.07 -0.07)">
     <use xlink:href="#DejaVuSans-Bold-30"/>
     <use xlink:href="#DejaVuSans-Bold-2e" x="69.580078"/>
     <use xlink:href="#DejaVuSans-Bold-38" x="107.568359"/>
     <use xlink:href="#DejaVuSans-Bold-32" x="177.148438"/>
     <use xlink:href="#DejaVuSans-Bold-78" x="246.728516"/>
    </g>
   </g>
   <g id="text_49">
    <!-- Performance: MiniSat vs CDCL Speedup by Benchmark (SATLIB) -->
    <g transform="translate(258.851875 19.44) scale(0.12 -0.12)">
     <defs>
      <path id="DejaVuSans-50" d="M 1259 4147 
L 1259 2394 
L 2053 2394 
Q 2494 2394 2734 2622 
Q 2975 2850 2975 3272 
Q 2975 3691 2734 3919 
Q 2494 4147 2053 4147 
L 1259 4147 
z
M 628 4666 
L 2053 4666 
Q 2838 4666 3239 4311 
Q 3641 3956 3641 3272 
Q 3641 2581 3239 2228 
Q 2838 1875 2053 1875 
L 1259 1875 
L 1259 0 
L 628 0 
L 628 4666 
z
" transform="scale(0.015625)"/>
      <path id="DejaVuSans-72" d="M 2631 2963 
Q 2534 3019 2420 3045 
Q 2306 3072 2169 3072 
Q 1681 3072 1420 2755 
Q 1159 2438 1159 1844 
L 1159 0 
L 581 0 
L 581 3500 
L 1159 3500 
L 1159 2956 
Q 1341 3275 1631 3429 
Q 1922 3584 2338 3584 
Q 2397 3584 2469 3576 
Q 2541 3569 2628 3553 
L 2631 2963 
z
" transform="scale(0.015625)"/>
      <path id="DejaVuSans-6f" d="M 1959 3097 
Q 1497 3097 1228 2736 
Q 959 2375 959 1747 
Q 959 1119 1226 758 
Q 1494 397 1959 397 
Q 2419 397 2687 759 
Q 2956 1122 2956 1747 
Q 2956 2369 2687 2733 
Q 2419 3097 1959 3097 
z
M 1959 3584 
Q 2709 3584 3137 3096 
Q 3566 2609 3566 1747 
Q 3566 888 3137 398 
Q 2709 -91 1959 -91 
Q 1206 -91 779 398 
Q 353 888 353 1747 
Q 353 2609 779 3096 
Q 1206 3584 1959 3584 
z
" transform="scale(0.015625)"/>
      <path id="DejaVuSans-6d" d="M 3328 2828 
Q 3544 3216 3844 3400 
Q 4144 3584 4550 3584 
Q 5097 3584 5394 3201 
Q 5691 2819 5691 2113 
L 5691 0 
L 5113 0 
L 5113 2094 
Q 5113 2597 4934 2840 
Q 4756 3084 4391 3084 
Q 3944 3084 3684 2787 
Q 3425 2491 3425 1978 
L 3425 0 
L 2847 0 
L 2847 2094 
Q 2847 2600 2669 2842 
Q 2491 3084 2119 3084 
Q 1678 3084 1418 2786 
Q 1159 2488 1159 1978 
L 1159 0 
L 581 0 
L 581 3500 
L 1159 3500 
L 1159 2956 
Q 1356 3278 1631 3431 
Q 1906 3584 2284 3584 
Q 2666 3584 2933 3390 
Q 3200 3197 3328 2828 
z
" transform="scale(0.015625)"/>
      <path id="DejaVuSans-63" d="M 3122 3366 
L 3122 2828 
Q 2878 2963 2633 3030 
Q 2388 3097 2138 3097 
Q 1578 3097 1268 2742 
Q 959 2388 959 1747 
Q 959 1106 1268 751 
Q 1578 397 2138 397 
Q 2388 397 2633 464 
Q 2878 531 3122 666 
L 3122 134 
Q 2881 22 2623 -34 
Q 2366 -91 2075 -91 
Q 1284 -91 818 406 
Q 353 903 353 1747 
Q 353 2603 823 3093 
Q 1294 3584 2113 3584 
Q 2378 3584 2631 3529 
Q 2884 3475 3122 3366 
z
" transform="scale(0.015625)"/>
      <path id="DejaVuSans-3a" d="M 750 794 
L 1409 794 
L 1409 0 
L 750 0 
L 750 794 
z
M 750 3309 
L 1409 3309 
L 1409 2516 
L 750 2516 
L 750 3309 
z
" transform="scale(0.015625)"/>
      <path id="DejaVuSans-76" d="M 191 3500 
L 800 3500 
L 1894 563 
L 2988 3500 
L 3597 3500 
L 2284 0 
L 1503 0 
L 191 3500 
z
" transform="scale(0.015625)"/>
      <path id="DejaVuSans-73" d="M 2834 3397 
L 2834 2853 
Q 2591 2978 2328 3040 
Q 2066 3103 1784 3103 
Q 1356 3103 1142 2972 
Q 928 2841 928 2578 
Q 928 2378 1081 2264 
Q 1234 2150 1697 2047 
L 1894 2003 
Q 2506 1872 2764 1633 
Q 3022 1394 3022 966 
Q 3022 478 2636 193 
Q 2250 -91 1575 -91 
Q 1294 -91 989 -36 
Q 684 19 347 128 
L 347 722 
Q 666 556 975 473 
Q 1284 391 1588 391 
Q 1994 391 2212 530 
Q 2431 669 2431 922 
Q 2431 1156 2273 1281 
Q 2116 1406 1581 1522 
L 1381 1569 
Q 847 1681 609 1914 
Q 372 2147 372 2553 
Q 372 3047 722 3315 
Q 1072 3584 1716 3584 
Q 2034 3584 2315 3537 
Q 2597 3491 2834 3397 
z
" transform="scale(0.015625)"/>
      <path id="DejaVuSans-62" d="M 3116 1747 
Q 3116 2381 2855 2742 
Q 2594 3103 2138 3103 
Q 1681 3103 1420 2742 
Q 1159 2381 1159 1747 
Q 1159 1113 1420 752 
Q 1681 391 2138 391 
Q 2594 391 2855 752 
Q 3116 1113 3116 1747 
z
M 1159 2969 
Q 1341 3281 1617 3432 
Q 1894 3584 2278 3584 
Q 2916 3584 3314 3078 
Q 3713 2572 3713 1747 
Q 3713 922 3314 415 
Q 2916 -91 2278 -91 
Q 1894 -91 1617 61 
Q 1341 213 1159 525 
L 1159 0 
L 581 0 
L 581 4863 
L 1159 4863 
L 1159 2969 
z
" transform="scale(0.015625)"/>
      <path id="DejaVuSans-79" d="M 2059 -325 
Q 1816 -950 1584 -1140 
Q 1353 -1331 966 -1331 
L 506 -1331 
L 506 -850 
L 844 -850 
Q 1081 -850 1212 -737 
Q 1344 -625 1503 -206 
L 1606 56 
L 191 3500 
L 800 3500 
L 1894 763 
L 2988 3500 
L 3597 3500 
L 2059 -325 
z
" transform="scale(0.015625)"/>
      <path id="DejaVuSans-42" d="M 1259 2228 
L 1259 519 
L 2272 519 
Q 2781 519 3026 730 
Q 3272 941 3272 1375 
Q 3272 1813 3026 2020 
Q 2781 2228 2272 2228 
L 1259 2228 
z
M 1259 4147 
L 1259 2741 
L 2194 2741 
Q 2656 2741 2882 2914 
Q 3109 3088 3109 3444 
Q 3109 3797 2882 3972 
Q 2656 4147 2194 4147 
L 1259 4147 
z
M 628 4666 
L 2241 4666 
Q 2963 4666 3353 4366 
Q 3744 4066 3744 3513 
Q 3744 3084 3544 2831 
Q 3344 2578 2956 2516 
Q 3422 2416 3680 2098 
Q 3938 1781 3938 1306 
Q 3938 681 3513 340 
Q 3088 0 2303 0 
L 628 0 
L 628 4666 
z
" transform="scale(0.015625)"/>
      <path id="DejaVuSans-68" d="M 3513 2113 
L 3513 0 
L 2938 0 
L 2938 2094 
Q 2938 2591 2744 2837 
Q 2550 3084 2163 3084 
Q 1697 3084 1428 2787 
Q 1159 2491 1159 1978 
L 1159 0 
L 581 0 
L 581 4863 
L 1159 4863 
L 1159 2956 
Q 1366 3272 1645 3428 
Q 1925 3584 2291 3584 
Q 2894 3584 3203 3211 
Q 3513 2838 3513 2113 
z
" transform="scale(0.015625)"/>
      <path id="DejaVuSans-6b" d="M 581 4863 
L 1159 4863 
L 1159 1991 
L 2875 3500 
L 3609 3500 
L 1753 1863 
L 3688 0 
L 2938 0 
L 1159 1709 
L 1159 0 
L 581 0 
L 581 4863 
z
" transform="scale(0.015625)"/>
      <path id="DejaVuSans-49" d="M 628 4666 
L 1259 4666 
L 1259 0 
L 628 0 
L 628 4666 
z
" transform="scale(0.015625)"/>
     </defs>
     <use xlink:href="#DejaVuSans-50"/>
     <use xlink:href="#DejaVuSans-65" x="56.677734"/>
     <use xlink:href="#DejaVuSans-72" x="118.201172"/>
     <use xlink:href="#DejaVuSans-66" x="159.314453"/>
     <use xlink:href="#DejaVuSans-6f" x="194.519531"/>
     <use xlink:href="#DejaVuSans-72" x="255.701172"/>
     <use xlink:href="#DejaVuSans-6d" x="295.064453"/>
     <use xlink:href="#DejaVuSans-61" x="392.476562"/>
     <use xlink:href="#DejaVuSans-6e" x="453.755859"/>
     <use xlink:href="#DejaVuSans-63" x="517.134766"/>
     <use xlink:href="#DejaVuSans-65" x="572.115234"/>
     <use xlink:href="#DejaVuSans-3a" x="633.638672"/>
     <use xlink:href="#DejaVuSans-20" x="667.330078"/>
     <use xlink:href="#DejaVuSans-4d" x="699.117188"/>
     <use xlink:href="#DejaVuSans-69" x="785.396484"/>
     <use xlink:href="#DejaVuSans-6e" x="813.179688"/>
     <use xlink:href="#DejaVuSans-69" x="876.558594"/>
     <use xlink:href="#DejaVuSans-53" x="904.341797"/>
     <use xlink:href="#DejaVuSans-61" x="967.818359"/>
     <use xlink:href="#DejaVuSans-74" x="1029.097656"/>
     <use xlink:href="#DejaVuSans-20" x="1068.306641"/>
     <use xlink:href="#DejaVuSans-76" x="1100.09375"/>
     <use xlink:href="#DejaVuSans-73" x="1159.273438"/>
     <use xlink:href="#DejaVuSans-20" x="1211.373047"/>
     <use xlink:href="#DejaVuSans-43" x="1243.160156"/>
     <use xlink:href="#DejaVuSans-44" x="1312.984375"/>
     <use xlink:href="#DejaVuSans-43" x="1389.986328"/>
     <use xlink:href="#DejaVuSans-4c" x="1459.810547"/>
     <use xlink:href="#DejaVuSans-20" x="1515.523438"/>
     <use xlink:href="#DejaVuSans-53" x="1547.310547"/>
     <use xlink:href="#DejaVuSans-70" x="1610.787109"/>
     <use xlink:href="#DejaVuSans-65" x="1674.263672"/>
     <use xlink:href="#DejaVuSans-65" x="1735.787109"/>
     <use xlink:href="#DejaVuSans-64" x="1797.310547"/>
     <use xlink:href="#DejaVuSans-75" x="1860.787109"/>
     <use xlink:href="#DejaVuSans-70" x="1924.166016"/>
     <use xlink:href="#DejaVuSans-20" x="1987.642578"/>
     <use xlink:href="#DejaVuSans-62" x="2019.429688"/>
     <use xlink:href="#DejaVuSans-79" x="2082.90625"/>
     <use xlink:href="#DejaVuSans-20" x="2142.085938"/>
     <use xlink:href="#DejaVuSans-42" x="2173.873047"/>
     <use xlink:href="#DejaVuSans-65" x="2242.476562"/>
     <use xlink:href="#DejaVuSans-6e" x="2304"/>
     <use xlink:href="#DejaVuSans-63" x="2367.378906"/>
     <use xlink:href="#DejaVuSans-68" x="2422.359375"/>
     <use xlink:href="#DejaVuSans-6d" x="2485.738281"/>
     <use xlink:href="#DejaVuSans-61" x="2583.150391"/>
     <use xlink:href="#DejaVuSans-72" x="2644.429688"/>
     <use xlink:href="#DejaVuSans-6b" x="2685.542969"/>
     <use xlink:href="#DejaVuSans-20" x="2743.453125"/>
     <use xlink:href="#DejaVuSans-28" x="2775.240234"/>
     <use xlink:href="#DejaVuSans-53" x="2814.253906"/>
     <use xlink:href="#DejaVuSans-41" x="2879.605469"/>
     <use xlink:href="#DejaVuSans-54" x="2940.263672"/>
     <use xlink:href="#DejaVuSans-4c" x="3001.347656"/>
     <use xlink:href="#DejaVuSans-49" x="3057.060547"/>
     <use xlink:href="#DejaVuSans-42" x="3086.552734"/>
     <use xlink:href="#DejaVuSans-29" x="3155.15625"/>
    </g>
   </g>
   <g id="legend_1">
    <g id="patch_26">
     <path d="M 766.809844 45.850312 
L 846.9 45.850312 
Q 848.7 45.850312 848.7 44.050312 
L 848.7 31.74 
Q 848.7 29.94 846.9 29.94 
L 766.809844 29.94 
Q 765.009844 29.94 765.009844 31.74 
L 765.009844 44.050312 
Q 765.009844 45.850312 766.809844 45.850312 
z
" style="fill: #ffffff; opacity: 0.8; stroke: #cccccc; stroke-linejoin: miter"/>
    </g>
    <g id="line2d_30">
     <path d="M 768.609844 37.228594 
L 777.609844 37.228594 
L 786.609844 37.228594 
" style="fill: none; stroke-dasharray: 3.7,1.6; stroke-dashoffset: 0; stroke: #000000"/>
    </g>
    <g id="text_50">
     <!-- Break-even -->
     <g transform="translate(793.809844 40.378594) scale(0.09 -0.09)">
      <use xlink:href="#DejaVuSans-42"/>
      <use xlink:href="#DejaVuSans-72" x="68.603516"/>
      <use xlink:href="#DejaVuSans-65" x="107.466797"/>
      <use xlink:href="#DejaVuSans-61" x="168.990234"/>
      <use xlink:href="#DejaVuSans-6b" x="230.269531"/>
      <use xlink:href="#DejaVuSans-2d" x="288.179688"/>
      <use xlink:href="#DejaVuSans-65" x="324.263672"/>
      <use xlink:href="#DejaVuSans-76" x="385.787109"/>
      <use xlink:href="#DejaVuSans-65" x="444.966797"/>
      <use xlink:href="#DejaVuSans-6e" x="506.490234"/>
     </g>
    </g>
   </g>
  </g>
 </g>
 <defs>
  <clipPath id="pd4284ddd4e">
   <rect x="47.81" y="25.44" width="805.39" height="264.830078"/>
  </clipPath>
 </defs>
</svg>
